<svg width="120" height="120" viewBox="0 0 120 120" fill="none" xmlns="http://www.w3.org/2000/svg">
<rect width="120" height="120" rx="24" fill="#D560FF"/>
<path d="M74.999 86.25C74.999 88.3125 73.3115 90 71.249 90H48.749C46.6865 90 44.999 88.3125 44.999 86.25C44.999 84.1875 46.6865 82.5 48.749 82.5H71.249C73.3115 82.5 74.999 84.1875 74.999 86.25ZM56.249 44.9625V71.25C56.249 73.3125 57.9365 75 59.999 75C62.0615 75 63.749 73.3125 63.749 71.25V44.9625H70.4615C72.149 44.9625 72.974 42.9375 71.774 41.775L61.3115 31.35C60.5615 30.6375 59.399 30.6375 58.649 31.35L48.224 41.775C47.024 42.9375 47.849 44.9625 49.5365 44.9625H56.249Z" fill="white"/>
</svg>
