<svg width="120" height="120" viewBox="0 0 120 120" fill="none" xmlns="http://www.w3.org/2000/svg">
<rect width="120" height="120" rx="24" fill="#00D977"/>
<path d="M84.5884 61.2796C83.9595 61.2796 83.3442 61.0562 82.7425 60.6093C82.1387 60.1645 81.7582 59.6012 81.601 58.9194C81.3389 57.9228 81.0119 56.9389 80.6199 55.9675C80.2257 54.9982 79.7666 54.0677 79.2425 53.1761C78.8756 52.5991 78.7446 51.9561 78.8494 51.247C78.9543 50.5399 79.2425 49.9504 79.7142 49.4783C80.5004 48.744 81.4039 48.4293 82.4249 48.5342C83.448 48.6391 84.2215 49.1374 84.7457 50.0291C85.427 51.183 86.0297 52.3631 86.5538 53.5695C87.0779 54.7758 87.4972 56.0346 87.8117 57.3459C88.0737 58.3949 87.8777 59.3127 87.2236 60.0995C86.5675 60.8863 85.6891 61.2796 84.5884 61.2796ZM63.5193 88.6586C63.5193 88.0292 63.7425 87.4134 64.1891 86.8113C64.6335 86.2071 65.1964 85.8263 65.8778 85.669C66.8736 85.4067 67.8568 85.0794 68.8274 84.6871C69.796 84.2927 70.7257 83.8332 71.6167 83.3087C72.1933 82.9415 72.8358 82.8104 73.5444 82.9153C74.2509 83.0202 74.84 83.3087 75.3117 83.7808C76.0454 84.5675 76.3599 85.4717 76.2551 86.4935C76.1503 87.5173 75.6524 88.2915 74.7614 88.816C73.5559 89.4978 72.3505 90.0884 71.145 90.5877C69.9396 91.085 68.7079 91.5171 67.4501 91.8843C66.4019 92.1465 65.4847 91.963 64.6985 91.3336C63.9123 90.7042 63.5193 89.8125 63.5193 88.6586ZM79.7142 79.3749C79.2425 78.9553 78.9543 78.3784 78.8494 77.6441C78.7446 76.9098 78.8756 76.2542 79.2425 75.6772C79.7666 74.7855 80.2257 73.8551 80.6199 72.8858C81.0119 71.9144 81.3389 70.9305 81.601 69.9339C81.7582 69.2521 82.1251 68.6877 82.7016 68.2408C83.2782 67.796 83.9071 67.5736 84.5884 67.5736C85.7415 67.5736 86.6324 67.967 87.2614 68.7538C87.8903 69.5405 88.0737 70.4584 87.8117 71.5074C87.4448 72.7662 87.013 73.9988 86.5161 75.2051C86.0171 76.4115 85.427 77.6179 84.7457 78.8242C84.2215 79.7159 83.448 80.2141 82.4249 80.319C81.4039 80.4239 80.5004 80.1092 79.7142 79.3749ZM53.3778 91.8056C47.1409 90.1272 42.0308 86.7704 38.0476 81.7352C34.0644 76.7 32.0728 70.9305 32.0728 64.4266C32.0728 56.5591 34.8243 49.8717 40.3275 44.3645C45.8306 38.8572 52.513 36.1036 60.3746 36.1036H60.8463L58.0947 33.3499C57.5182 32.773 57.23 32.0387 57.23 31.147C57.23 30.2554 57.5444 29.4948 58.1734 28.8654C58.7499 28.2885 59.4836 28 60.3746 28C61.2656 28 62.0256 28.2885 62.6545 28.8654L70.752 37.0477C71.0664 37.3624 71.2886 37.7033 71.4186 38.0704C71.5507 38.4376 71.6167 38.831 71.6167 39.2506C71.6167 39.6702 71.5507 40.0635 71.4186 40.4307C71.2886 40.7978 71.0664 41.1388 70.752 41.4535L62.5759 49.6357C61.9993 50.2126 61.2656 50.5011 60.3746 50.5011C59.4836 50.5011 58.7499 50.2126 58.1734 49.6357C57.5968 49.0587 57.3086 48.3244 57.3086 47.4328C57.3086 46.5411 57.5968 45.8068 58.1734 45.2299L61.0035 42.3976H60.3746C54.2425 42.3976 49.0413 44.5354 44.7709 48.8112C40.4983 53.0848 38.3621 58.29 38.3621 64.4266C38.3621 69.5143 39.9082 74.0114 43.0004 77.9179C46.0927 81.8265 50.0497 84.4101 54.8715 85.669C55.5528 85.8263 56.1168 86.1935 56.5633 86.7704C57.0077 87.3474 57.23 87.9768 57.23 88.6586C57.23 89.7601 56.8505 90.6255 56.0916 91.2549C55.3306 91.8843 54.426 92.0679 53.3778 91.8056Z" fill="white"/>
</svg>
