<svg width="218" height="128" viewBox="0 0 218 128" fill="none" xmlns="http://www.w3.org/2000/svg">
<path d="M20.2772 96.317C9.07842 96.317 -3.9683e-07 87.2386 -8.86345e-07 76.0398L-1.32952e-06 65.9012C-1.81903e-06 54.7024 9.07842 45.624 20.2772 45.624V45.624L20.2772 96.317V96.317Z" fill="#0F2F2C"/>
<path d="M197.703 96.317L197.703 45.624V45.624C208.902 45.624 217.98 54.7024 217.98 65.9012L217.98 76.0398C217.98 87.2386 208.902 96.317 197.703 96.317V96.317Z" fill="#0F2F2C"/>
<path d="M179.96 20.2773L38.0199 20.2773V20.2773C38.0199 9.07845 47.0983 1.54299e-05 58.2971 1.44508e-05L159.683 5.58739e-06C170.882 4.60836e-06 179.96 9.07844 179.96 20.2773V20.2773Z" fill="#0F2F2C"/>
<rect x="20.2773" y="13.9407" width="177.426" height="114.059" rx="32" fill="#EBEEF3"/>
</svg>
