<svg width="200" height="88" viewBox="0 0 200 88" fill="none" xmlns="http://www.w3.org/2000/svg">
<rect x="5" y="5" width="32" height="78" rx="16" stroke="#EDF0F3" stroke-width="10"/>
<rect x="44" y="32.5" width="10" height="23" rx="5" fill="#00A395"/>
<rect x="56" y="36.5" width="70" height="15" fill="#EDF0F3"/>
<rect x="128" y="32.5" width="10" height="23" rx="5" fill="#00A395"/>
<path d="M140 36.5H192.5C196.642 36.5 200 39.8579 200 44V44C200 48.1421 196.642 51.5 192.5 51.5H140V36.5Z" fill="#EDF0F3"/>
<path d="M172 54H188C190.209 54 192 55.7909 192 58V78C192 80.2091 190.209 82 188 82H176C173.791 82 172 80.2091 172 78V54Z" fill="#00A395"/>
<path d="M156 54H164C166.209 54 168 55.7909 168 58V78C168 80.2091 166.209 82 164 82H160C157.791 82 156 80.2091 156 78V54Z" fill="#00A395"/>
<path d="M140 54H148C150.209 54 152 55.7909 152 58V78C152 80.2091 150.209 82 148 82H144C141.791 82 140 80.2091 140 78V54Z" fill="#00A395"/>
</svg>
