<svg width="182" height="149" viewBox="0 0 182 149" fill="none" xmlns="http://www.w3.org/2000/svg">
<path d="M46.4098 24.8644C44.4613 29.3695 42.5005 33.7411 41.7269 38.6323C40.2348 48.0436 43.8753 57.4511 44.4965 66.7744C44.6908 69.6842 43.5964 72.5614 44.5148 75.4158C45.1556 77.4087 47.1069 78.8635 48.7426 80.0054C54.0922 83.7428 60.4532 86.2577 66.4653 88.681C78.5279 93.5429 91.0198 97.3327 103.808 99.6422C109.875 101.529 118.694 99.912 122.958 94.9453C126.06 91.3293 128.62 87.0393 131.21 83.0415C133.48 79.5396 136.052 75.8457 137.617 71.9506C138.942 68.6555 138.882 66.1 136.794 63.1637C133.904 59.1012 129.825 55.6378 126.317 52.1293C118.873 44.6874 111.058 37.7025 102.769 31.2158C95.9255 25.8603 87.6984 18.7834 78.7426 17.6662C74.2514 17.1068 69.5108 17.3589 64.9888 17.2464C60.8707 17.1451 56.6408 17.1658 52.6738 18.3763C49.5029 19.3459 47.6733 21.9434 46.4098 24.8644Z" fill="#0F2F2C"/>
<path d="M65.9644 18.5198C71.693 18.5756 77.7582 18.0704 83.1549 20.2415C87.8171 22.117 92.0018 25.3127 96.0401 28.2436C100.56 31.5219 104.958 35.001 109.22 38.609C117.654 45.7485 125.786 53.3765 133.252 61.5255C134.752 63.1616 136.145 64.7419 136.778 66.918C137.404 69.0681 136.043 71.7097 135.115 73.539C132.939 77.8277 130.223 81.8876 127.56 85.8816C125.124 89.5355 122.704 94.1724 118.961 96.6008C114.81 99.2932 109.068 99.8655 104.343 98.8879C104.245 98.8682 104.112 98.8877 103.982 98.9367C94.8712 96.964 86.0419 94.2058 77.2196 91.109C67.9108 87.8413 57.988 84.1855 49.9104 78.4086C45.3784 75.1659 47.0755 71.0745 46.9052 66.3362C46.7263 61.3257 45.4255 56.3085 44.6408 51.3647C43.0233 41.1415 44.6017 31.0144 50.1246 22.1228C52.9633 17.5547 61.3465 18.4739 65.9644 18.5198Z" fill="#BCBCBC"/>
<path d="M128.72 76.8119C125.692 81.1032 123.492 85.9231 120.257 90.0651C118.392 92.4537 115.758 96.0456 112.483 96.5512C108.669 97.1413 105.523 94.9097 102.066 93.7142C89.7933 89.4651 77.0945 87.2979 64.3867 84.8452C62.68 84.5165 60.9558 84.2162 59.2329 83.8981C65.0513 86.7624 71.2592 89.0161 77.2184 91.1093C86.0413 94.2066 94.8699 96.9643 103.98 98.937C104.11 98.8886 104.244 98.869 104.342 98.8881C109.066 99.8658 114.809 99.2934 118.959 96.601C122.703 94.1726 125.123 89.5358 127.558 85.8818C130.222 81.8878 132.938 77.828 135.114 73.5392C136.041 71.7106 137.403 69.0683 136.777 66.9182C136.695 66.6345 136.597 66.3596 136.49 66.0935C133.997 69.7335 131.27 73.1992 128.72 76.8119Z" fill="#BCBCBC"/>
<path d="M50.1243 22.1213C44.6014 31.0128 43.023 41.14 44.6405 51.3632C45.4245 56.3064 46.7254 61.3248 46.9049 66.3347C47.0657 70.8141 45.5667 74.7155 49.2279 77.8656C49.2919 77.4072 49.4137 76.9363 49.6258 76.4572C51.1882 72.8972 55.3578 70.6323 58.5918 68.804C62.6099 66.5322 66.9245 64.449 71.4697 63.4822C75.6911 62.5847 80.213 62.2904 84.1694 64.3753C89.1999 67.027 92.9087 71.2644 96.0835 75.9041C99.645 81.1108 103.383 86.066 107.156 91.1164C109.059 93.6658 110.797 96.2736 112.156 99.0744C112.275 99.0552 112.395 99.031 112.515 99.0106C114.889 87.4765 107.223 77.173 101.113 67.9709C98.1911 63.5729 94.9987 59.0728 93.899 53.8307C92.6657 47.9633 93.3329 41.4985 94.6025 35.7025C94.7115 35.2053 95.1847 34.8328 95.7065 34.938C100.507 35.9124 104.808 38.5119 108.792 41.2712C113.313 44.4018 117.904 47.6628 122.152 51.1506C125.168 53.6283 128.044 56.2694 130.866 58.9695C124.066 51.7789 116.767 44.9981 109.222 38.6105C104.96 35.0024 100.562 31.5234 96.0419 28.245C92.003 25.3149 87.8189 22.1184 83.1567 20.2429C77.7594 18.0713 71.6942 18.5765 65.9662 18.5212C61.3469 18.4742 52.9638 17.555 50.1243 22.1213Z" fill="#BCBCBC"/>
<path d="M51.4384 65.5361C57.3106 62.7937 63.6338 60.8761 69.6675 58.5112C75.9851 56.0357 82.5356 52.676 88.3104 57.8453C90.7265 60.0089 93.2873 62.2393 95.6993 64.6174C95.1383 63.5658 94.5768 62.515 94.0069 61.4698C91.7166 57.2767 88.9005 53.3792 86.6891 49.1529C83.0665 42.2321 82.1314 34.3903 80.7546 26.7816C77.4873 31.8004 73.6785 45.4106 67.4264 42.1136C63.2609 39.9163 60.0668 36.0088 56.9093 32.6109C54.2864 29.7883 51.5311 27.1147 48.8325 24.3831C44.3705 32.7111 43.1577 41.9939 44.6409 51.3625C45.4249 56.3058 46.7258 61.3242 46.9053 66.334C46.9269 66.9186 46.9179 67.4909 46.8976 68.0558C48.3781 67.0329 50.0065 66.2035 51.4384 65.5361Z" fill="#BCBCBC"/>
<path d="M83.7403 54.2572C84.3726 55.0324 84.851 55.4073 85.8226 55.666C87.7985 56.1891 88.8188 58.0504 89.8626 59.6459C90.9231 61.2697 92.2024 62.759 93.4815 64.2128C94.9698 65.9022 96.1583 68.3716 97.3858 70.2816C103.022 79.0511 108.735 87.0749 112.007 97.1249C112.16 97.5939 113.287 97.3842 113.167 96.9145C111.998 92.4205 110.461 88.1027 108.411 83.9299C106.088 79.2049 102.675 75.1258 99.9308 70.6575C97.6232 66.8983 95.1676 63.216 92.3578 59.829C91.2239 58.4621 90.4156 56.9221 88.9719 55.8439C87.6764 54.8751 86.0557 54.8557 84.8587 53.7417C84.5537 53.4604 83.3827 53.8194 83.7403 54.2572Z" fill="#0F2F2C"/>
<path d="M80.597 28.5397C80.4519 33.1376 80.5322 37.4848 81.013 42.065C81.2702 44.5096 81.5636 46.9476 81.9921 49.3691C82.1705 50.3763 82.2504 51.3588 82.5735 52.3342C82.8942 53.3098 80.5878 53.4901 80.2227 53.5556C76.618 54.2037 72.5048 55.9779 69.2161 57.5262C63.8328 60.0573 58.2391 62.1255 52.7501 64.4113C52.293 64.6019 52.6674 64.9544 53.026 64.806C58.6372 62.5078 64.4385 60.7182 70.0119 58.3161C74.3346 56.4496 79.0673 55.7806 83.4 54.0516C83.7786 53.9004 84.6199 53.104 84.451 52.657C83.5861 50.3746 83.3618 47.8329 83.0154 45.4279C82.187 39.6884 82.1021 34.0776 81.8372 28.3138C81.8108 27.7978 80.6148 28.0229 80.597 28.5397Z" fill="#0F2F2C"/>
<path d="M180.45 115.994C178.997 111.306 177.641 106.711 175.045 102.494C170.052 94.3772 161.166 89.6041 154.626 82.9297C152.585 80.847 151.544 77.9502 148.989 76.3808C147.205 75.2848 144.777 75.4502 142.792 75.6478C136.298 76.2919 129.831 78.5223 123.69 80.5952C111.367 84.7545 99.4165 90.0071 88.2042 96.5764C82.3702 99.0924 76.727 106.059 76.7217 112.606C76.7199 117.37 77.568 122.293 78.2038 127.014C78.7594 131.15 79.2106 135.629 80.5572 139.605C81.696 142.968 83.4047 144.87 86.9013 145.74C91.7392 146.944 97.0899 146.919 102.037 147.299C112.532 148.105 123.011 148.322 133.526 147.852C142.208 147.464 153.06 147.483 160.586 142.502C164.36 140.004 167.795 136.727 171.302 133.87C174.494 131.267 177.692 128.498 179.916 124.997C181.693 122.197 181.391 119.034 180.45 115.994Z" fill="#0F2F2C"/>
<path d="M169.732 133.538C165.347 137.224 161.071 141.555 155.56 143.419C150.8 145.029 145.543 145.326 140.569 145.729C135.004 146.182 129.401 146.403 123.817 146.437C112.767 146.506 101.628 146.007 90.6567 144.678C88.4531 144.412 86.3664 144.12 84.4696 142.88C82.5951 141.654 81.9093 138.763 81.4233 136.77C80.2845 132.098 79.7039 127.248 79.1269 122.482C78.5981 118.123 77.4174 113.027 78.6793 108.747C80.0785 104.002 84.0656 99.83 88.289 97.4973C88.3764 97.4483 88.4647 97.3469 88.5316 97.225C96.7324 92.7936 105.231 89.1414 113.945 85.7509C123.139 82.1735 133.052 78.4911 142.944 77.6202C148.496 77.1326 149.87 81.3434 153.083 84.8301C156.48 88.5178 160.733 91.4804 164.546 94.7233C172.427 101.432 177.82 110.148 179.414 120.494C180.231 125.809 173.268 130.567 169.732 133.538Z" fill="#BCBCBC"/>
<path d="M84.1481 130.123C83.6541 124.895 82.188 119.803 81.9481 114.553C81.8099 111.526 81.4719 107.084 83.6291 104.569C86.1412 101.639 89.9821 101.285 93.3843 99.9439C105.468 95.1823 116.52 88.5632 127.764 82.1548C129.274 81.2936 130.778 80.3995 132.293 79.5196C126.012 81.1317 119.832 83.4609 113.945 85.75C105.231 89.1406 96.7329 92.7927 88.5321 97.2241C88.4652 97.3451 88.376 97.4474 88.2895 97.4964C84.0661 99.8291 80.0789 104.001 78.6797 108.746C77.4179 113.027 78.5986 118.122 79.1274 122.481C79.7044 127.247 80.2849 132.097 81.4237 136.769C81.9098 138.761 82.5955 141.654 84.47 142.879C84.7171 143.041 84.9703 143.186 85.2245 143.318C84.7483 138.932 84.5637 134.525 84.1481 130.123Z" fill="#BCBCBC"/>
<path d="M179.415 120.494C177.821 110.149 172.428 101.433 164.547 94.7241C160.735 91.4813 156.481 88.5178 153.084 84.831C150.047 81.5347 148.646 77.597 143.816 77.5881C144.065 77.9778 144.279 78.4146 144.43 78.9164C145.561 82.6361 143.869 87.0694 142.604 90.5623C141.032 94.9021 139.112 99.2917 136.29 102.984C133.669 106.413 130.428 109.579 126.067 110.571C120.522 111.832 114.948 111.028 109.518 109.572C103.425 107.937 97.3622 106.608 91.2107 105.229C88.1073 104.531 85.0904 103.682 82.2358 102.44C82.1574 102.533 82.0825 102.629 82.0049 102.722C87.7087 113.025 100.235 115.858 110.863 118.868C115.943 120.306 121.296 121.645 125.542 124.909C130.297 128.561 133.998 133.904 136.806 139.13C137.047 139.579 136.93 140.17 136.466 140.429C132.187 142.814 127.23 143.639 122.409 144.138C116.939 144.702 111.331 145.215 105.836 145.331C101.933 145.413 98.031 145.28 94.1313 145.066C103.974 146.1 113.929 146.498 123.814 146.437C129.398 146.403 135.001 146.182 140.567 145.729C145.54 145.325 150.797 145.029 155.558 143.419C161.069 141.555 165.345 137.224 169.73 133.538C173.268 130.567 180.231 125.809 179.415 120.494Z" fill="#BCBCBC"/>
<path d="M150.162 88.3879C147.488 94.2918 143.935 99.8629 140.894 105.585C137.708 111.576 134.921 118.39 127.173 118.224C123.93 118.154 120.534 118.127 117.155 117.891C118.266 118.325 119.376 118.757 120.489 119.18C124.957 120.873 129.631 121.999 134.061 123.768C141.315 126.665 147.129 132.01 153.126 136.891C152.34 130.954 146.374 118.142 153.267 116.576C157.86 115.534 162.828 116.422 167.436 116.946C171.265 117.382 175.097 117.619 178.923 117.937C176.891 108.71 171.77 100.873 164.547 94.725C160.735 91.4822 156.481 88.5187 153.084 84.8319C152.687 84.4021 152.322 83.9618 151.969 83.5196C151.511 85.2598 150.815 86.9493 150.162 88.3879Z" fill="#BCBCBC"/>
<path d="M132.977 117.974C131.993 117.797 131.386 117.824 130.48 118.26C128.639 119.148 126.653 118.399 124.822 117.867C122.96 117.325 121.02 117.026 119.102 116.755C116.873 116.441 114.363 115.34 112.188 114.688C102.202 111.698 92.6424 109.325 83.6176 103.824C83.1958 103.568 82.477 104.46 82.8739 104.738C86.6862 107.39 90.6627 109.668 94.9352 111.502C99.7739 113.577 105.02 114.453 110.012 116.059C114.21 117.412 118.471 118.609 122.809 119.352C124.559 119.652 126.175 120.295 127.973 120.174C129.587 120.067 130.83 119.026 132.464 119.093C132.879 119.108 133.534 118.074 132.977 117.974Z" fill="#0F2F2C"/>
<path d="M152.102 135.453C149.22 131.868 146.329 128.62 142.983 125.455C141.197 123.767 139.388 122.107 137.486 120.547C136.695 119.898 135.995 119.204 135.115 118.674C134.237 118.142 135.871 116.504 136.105 116.217C138.42 113.379 140.388 109.355 141.878 106.039C144.317 100.614 147.218 95.403 149.898 90.0952C150.121 89.653 149.608 89.629 149.432 89.9751C146.667 95.3718 143.427 100.506 140.759 105.957C138.692 110.188 135.534 113.776 133.37 117.908C133.181 118.269 133.061 119.421 133.48 119.651C135.622 120.821 137.446 122.605 139.274 124.205C143.639 128.024 147.355 132.228 151.307 136.432C151.663 136.807 152.425 135.857 152.102 135.453Z" fill="#0F2F2C"/>
<path d="M81.4472 106.048C79.6618 103.089 76.6539 100.84 73.9678 98.7506C69.5036 95.2817 64.9457 91.9561 60.304 88.7293C55.7426 85.5585 51.1463 82.4286 46.5403 79.3228C43.0115 76.9447 39.2893 75.2143 34.9543 75.5443C26.1284 76.2169 17.7635 84.5371 12.1017 90.5238C6.53518 96.4116 3.10094 102.997 1.04628 110.539C0.89379 110.677 0.765377 110.842 0.73149 110.977C0.451472 112.12 0.221389 113.256 0.13132 114.372C0.0929733 114.565 0.0483893 114.754 0.0109347 114.946C-0.0202775 115.111 0.0180656 115.189 0.0911914 115.214C0.0724641 116.924 0.440772 118.582 1.5332 120.14C3.90533 123.519 9.59397 124.588 13.3287 125.184C24.4216 126.955 36.1422 126.942 47.3349 126.491C55.4884 126.163 91.4645 122.632 81.4472 106.048Z" fill="#0F2F2C"/>
<path d="M80.9026 113.275C79.8699 117.174 75.148 119.032 71.7761 120.335C63.8393 123.405 55.0027 124.139 46.5594 124.484C37.1538 124.868 27.7919 124.311 18.4211 123.59C14.0764 123.257 9.82169 122.57 5.9059 120.568C2.11139 118.628 1.34178 115.313 1.62982 111.514C3.66664 104.34 6.98584 98.0388 12.1564 92.4197C18.0573 86.0007 26.2607 78.2116 35.4318 77.5203C39.7221 77.1973 43.8073 80.3334 47.1176 82.6235C50.5911 85.0274 54.0967 87.385 57.5755 89.7809C63.9517 94.1732 70.4438 98.6287 76.2404 103.777C78.856 106.103 81.9094 109.472 80.9026 113.275Z" fill="#BCBCBC"/>
<path d="M5.09381 111.347C7.45345 104.709 12.5446 100.388 16.9277 95.1083C21.2715 89.8743 24.9046 81.039 31.8783 78.6795C34.073 77.9367 36.2837 77.837 38.5248 77.8415C37.5108 77.571 36.4772 77.442 35.4303 77.5203C26.2601 78.2116 18.0567 85.9998 12.1549 92.4197C6.98437 98.0388 3.66607 104.34 1.62836 111.514C1.34031 115.313 2.10991 118.629 5.90443 120.568C5.93475 120.584 5.96864 120.597 5.99896 120.613C4.4107 118.019 3.75257 115.126 5.09381 111.347Z" fill="#BCBCBC"/>
<path d="M76.2375 103.777C70.4409 98.6287 63.9497 94.1732 57.5726 89.7809C54.0946 87.385 50.5882 85.0274 47.1147 82.6235C44.1397 80.5648 40.5378 77.8317 36.7219 77.5319C38.0168 81.1101 37.2044 85.9286 37.2044 89.2675C37.2026 99.0264 38.0926 108.763 37.2516 118.519C37.0742 120.586 36.7513 122.593 36.334 124.565C39.7388 124.637 43.1445 124.624 46.5582 124.485C55.0025 124.14 63.8382 123.406 71.775 120.336C75.1468 119.032 79.8688 117.175 80.9014 113.275C81.9092 109.472 78.8557 106.103 76.2375 103.777Z" fill="#BCBCBC"/>
<path d="M37.2143 90.1305C37.2615 99.6002 38.0686 109.05 37.2526 118.519C37.0751 120.586 36.7523 122.593 36.335 124.565C39.7398 124.637 43.1455 124.624 46.5592 124.485C50.4973 124.324 54.5201 124.075 58.4992 123.548C52.1301 111.96 45.2429 100.701 37.2143 90.1305Z" fill="#BCBCBC"/>
</svg>
