<svg width="160" height="160" viewBox="0 0 160 160" fill="none" xmlns="http://www.w3.org/2000/svg">
<circle cx="80" cy="80" r="80" fill="#0F2F2C"/>
<path d="M90.7486 45H67.1672C66.6882 45 66.2765 45.3397 66.1855 45.8099L57.2304 92.0618C57.1109 92.6789 57.5836 93.2519 58.2122 93.2519H77.0964C77.7092 93.2519 78.1778 93.798 78.0848 94.4037L73.2568 125.833C73.0894 126.923 74.55 127.442 75.1078 126.491L104.117 77.0326C104.508 76.366 104.027 75.5267 103.254 75.5267H83.8152C83.139 75.5267 82.6577 74.8696 82.8618 74.2249L91.702 46.3018C91.906 45.6572 91.4248 45 90.7486 45Z" fill="white"/>
<path d="M113.31 52.9692C114.862 51.6665 117.19 51.8614 118.367 53.5118C123.909 61.2876 126.941 70.6098 126.999 80.2175C127.058 89.8252 124.139 99.1836 118.692 107.026C117.536 108.691 115.21 108.914 113.642 107.63V107.63C112.074 106.346 111.859 104.043 112.991 102.361C117.368 95.8559 119.708 88.159 119.66 80.2621C119.612 72.3652 117.179 64.6973 112.723 58.2457C111.571 56.578 111.757 54.272 113.31 52.9692V52.9692Z" fill="white"/>
<path d="M46.6901 107.031C45.1375 108.334 42.8095 108.139 41.6332 106.488C36.0911 98.7125 33.0592 89.3903 33.0009 79.7825C32.9425 70.1748 35.8609 60.8164 41.3081 52.9739C42.4643 51.3093 44.7897 51.0861 46.358 52.3699V52.3699C47.9262 53.6537 48.1407 55.9573 47.0093 57.6388C42.6321 64.1441 40.2921 71.841 40.3401 79.7379C40.3881 87.6349 42.8214 95.3027 47.2773 101.754C48.4291 103.422 48.2426 105.728 46.6901 107.031V107.031Z" fill="white"/>
<path d="M130.111 44.825C131.562 43.7913 133.583 44.1252 134.543 45.6256C141.279 56.1529 144.823 68.4332 144.709 80.9766C144.594 93.52 140.825 105.733 133.898 116.136C132.911 117.618 130.884 117.915 129.452 116.855V116.855C128.021 115.795 127.728 113.78 128.707 112.292C134.828 102.989 138.157 92.0988 138.259 80.9176C138.361 69.7364 135.233 58.7875 129.283 49.3737C128.331 47.8681 128.661 45.8587 130.111 44.825V44.825Z" fill="white"/>
<path d="M30.8887 116.175C29.4382 117.209 27.4169 116.875 26.457 115.374C19.7215 104.847 16.1765 92.5668 16.2913 80.0234C16.406 67.48 20.175 55.2666 27.1019 44.8642C28.0891 43.3817 30.1162 43.0849 31.5476 44.1449V44.1449C32.9789 45.205 33.2716 47.2201 32.2926 48.708C26.1718 58.0114 22.8433 68.9012 22.741 80.0824C22.6387 91.2636 25.7675 102.212 31.7171 111.626C32.6687 113.132 32.3392 115.141 30.8887 116.175V116.175Z" fill="white"/>
</svg>
