<svg width="160" height="160" viewBox="0 0 160 160" fill="none" xmlns="http://www.w3.org/2000/svg">
<g clip-path="url(#clip0_30_56172)">
<rect y="40" width="40" height="40" fill="#0F2F2C"/>
<rect y="120" width="40" height="40" fill="#0F2F2C"/>
<rect width="40" height="40" fill="white"/>
<rect x="40" y="40" width="40" height="40" fill="white"/>
<rect y="80" width="40" height="40" fill="white"/>
<rect x="40" y="120" width="40" height="40" fill="white"/>
<rect x="40" width="40" height="40" fill="#0F2F2C"/>
<rect x="80" y="40" width="40" height="40" fill="#0F2F2C"/>
<rect x="40" y="80" width="40" height="40" fill="#0F2F2C"/>
<rect x="80" y="120" width="40" height="40" fill="#0F2F2C"/>
<rect x="80" width="40" height="40" fill="white"/>
<rect x="120" y="40" width="40" height="40" fill="white"/>
<rect x="80" y="80" width="40" height="40" fill="white"/>
<rect x="120" y="120" width="40" height="40" fill="white"/>
<rect x="120" width="40" height="40" fill="#0F2F2C"/>
<rect x="120" y="80" width="40" height="40" fill="#0F2F2C"/>
</g>
<defs>
<clipPath id="clip0_30_56172">
<rect width="160" height="160" rx="32" fill="white"/>
</clipPath>
</defs>
</svg>
