<svg width="124" height="146" viewBox="0 0 124 146" fill="none" xmlns="http://www.w3.org/2000/svg">
<path d="M20 42C20 36.4845 21.0864 31.023 23.1971 25.9273C25.3078 20.8316 28.4015 16.2016 32.3015 12.3015C36.2016 8.40145 40.8316 5.30775 45.9273 3.19706C51.023 1.08636 56.4845 -3.71655e-06 62 -3.95764e-06C67.5155 -4.19873e-06 72.977 1.08636 78.0727 3.19706C83.1684 5.30775 87.7984 8.40145 91.6985 12.3015C95.5985 16.2016 98.6922 20.8316 100.803 25.9273C102.914 31.023 104 36.4845 104 42L91.001 42C91.001 38.1915 90.2509 34.4204 88.7934 30.9018C87.336 27.3832 85.1998 24.1862 82.5068 21.4932C79.8138 18.8002 76.6168 16.664 73.0982 15.2066C69.5796 13.7491 65.8085 12.999 62 12.999C58.1915 12.999 54.4204 13.7491 50.9018 15.2066C47.3832 16.664 44.1862 18.8002 41.4932 21.4932C38.8002 24.1862 36.664 27.3832 35.2066 30.9018C33.7491 34.4204 32.999 38.1915 32.999 42L20 42Z" fill="#EDF0F3"/>
<rect x="20" y="42" width="13" height="33" fill="#EDF0F3"/>
<rect x="91" y="42" width="13" height="33" fill="#EDF0F3"/>
<rect y="52" width="124" height="94" rx="16" fill="#00A395"/>
<circle cx="62" cy="90" r="11" fill="#EBEEF3"/>
<rect x="58" y="93" width="8" height="26" fill="#EBEEF3"/>
</svg>
