<svg width="120" height="120" viewBox="0 0 120 120" fill="none" xmlns="http://www.w3.org/2000/svg">
<rect width="120" height="120" rx="24" fill="#6082FF"/>
<path d="M58.2472 86.1403C57.588 85.4838 57.2428 84.6482 57.2117 83.6337C57.1829 82.6191 57.4981 81.7836 58.1573 81.1271L75.7753 63.5809H35.5955C34.5768 63.5809 33.7222 63.2371 33.0319 62.5496C32.344 61.8644 32 61.0146 32 60C32 58.9854 32.344 58.1344 33.0319 57.4468C33.7222 56.7617 34.5768 56.4191 35.5955 56.4191H75.7753L58.1573 38.8729C57.4981 38.2164 57.1829 37.3809 57.2117 36.3663C57.2428 35.3518 57.588 34.5162 58.2472 33.8597C58.9064 33.2032 59.7453 32.875 60.764 32.875C61.7828 32.875 62.6217 33.2032 63.2809 33.8597L87.0112 57.4934C87.3708 57.7918 87.6261 58.1642 87.7771 58.6106C87.9257 59.0594 88 59.5226 88 60C88 60.4774 87.9257 60.9251 87.7771 61.3428C87.6261 61.7606 87.3708 62.1485 87.0112 62.5066L63.2809 86.1403C62.6217 86.7967 61.7828 87.125 60.764 87.125C59.7453 87.125 58.9064 86.7967 58.2472 86.1403Z" fill="white"/>
</svg>
