<svg width="120" height="120" viewBox="0 0 120 120" fill="none" xmlns="http://www.w3.org/2000/svg">
<rect width="120" height="120" rx="24" fill="#FF629E"/>
<path d="M35.4084 61.2814C34.3077 61.2814 33.4303 60.9017 32.7762 60.1421C32.1199 59.3805 31.9229 58.4752 32.1849 57.4261C32.4994 56.1148 32.9187 54.8423 33.4429 53.6086C33.967 52.377 34.5698 51.1842 35.2512 50.0303C35.8277 49.1386 36.6013 48.6402 37.5721 48.5353C38.5407 48.4304 39.4443 48.7714 40.2829 49.5582C40.7022 49.9778 40.9779 50.5411 41.11 51.2482C41.24 51.9574 41.1215 52.6004 40.7546 53.1774C40.1781 54.0691 39.7064 54.9996 39.3395 55.969C38.9726 56.9404 38.6581 57.9244 38.396 58.921C38.2388 59.6029 37.8855 60.1663 37.3362 60.6111C36.7848 61.058 36.1422 61.2814 35.4084 61.2814ZM52.6264 91.8877C51.3685 91.573 50.1242 91.1534 48.8935 90.6289C47.6607 90.1043 46.4416 89.5011 45.236 88.8192C44.345 88.2422 43.8471 87.468 43.7422 86.4966C43.6374 85.5273 43.9781 84.623 44.7643 83.7837C45.1836 83.3641 45.7466 83.0893 46.4531 82.9592C47.1617 82.827 47.8043 82.9445 48.3809 83.3117C49.2719 83.8886 50.2018 84.3607 51.1704 84.7279C52.1411 85.0951 53.1244 85.4098 54.1202 85.6721C54.8016 85.8294 55.3656 86.1829 55.8122 86.7326C56.2566 87.2845 56.4789 87.9275 56.4789 88.6619C56.4789 89.7634 56.0983 90.6414 55.3373 91.2961C54.5783 91.9528 53.6747 92.15 52.6264 91.8877ZM35.2512 78.8269C34.5698 77.6205 33.967 76.4005 33.4429 75.1668C32.9187 73.9352 32.4994 72.6899 32.1849 71.4311C31.9229 70.382 32.1199 69.4767 32.7762 68.715C33.4303 67.9555 34.3601 67.5758 35.5656 67.5758C36.1946 67.5758 36.7848 67.7982 37.3362 68.243C37.8855 68.6899 38.2388 69.2543 38.396 69.9362C38.6581 70.9328 38.9726 71.9168 39.3395 72.8882C39.7064 73.8575 40.1781 74.7881 40.7546 75.6798C41.1215 76.2567 41.2526 76.8862 41.1477 77.5681C41.0429 78.25 40.7546 78.8269 40.2829 79.299C39.4967 80.0858 38.6057 80.4268 37.6098 80.3218C36.6139 80.2169 35.8277 79.7186 35.2512 78.8269ZM66.621 91.8091C65.5727 92.0713 64.6691 91.8877 63.9101 91.2583C63.1491 90.6289 62.7685 89.7634 62.7685 88.6619C62.7685 88.0324 62.9918 87.4166 63.4384 86.8145C63.8829 86.2102 64.4458 85.8294 65.1272 85.6721C70.0017 84.4656 73.9726 81.8954 77.0398 77.9615C80.105 74.0275 81.6376 69.5165 81.6376 64.4286C81.6376 58.2916 79.5012 53.0862 75.2284 48.8123C70.9577 44.5363 65.7561 42.3983 59.6237 42.3983H58.9947L61.8251 45.2308C62.4016 45.8078 62.6899 46.5421 62.6899 47.4338C62.6899 48.3255 62.4016 49.0599 61.8251 49.6369C61.2485 50.2138 60.5147 50.5023 59.6237 50.5023C58.7327 50.5023 57.9989 50.2138 57.4223 49.6369L49.2457 41.4542C48.9312 41.1395 48.709 40.7985 48.579 40.4314C48.4469 40.0642 48.3809 39.6708 48.3809 39.2512C48.3809 38.8315 48.4469 38.4381 48.579 38.071C48.709 37.7038 48.9312 37.3629 49.2457 37.0481L57.4223 28.8655C57.9989 28.2885 58.7327 28 59.6237 28C60.5147 28 61.2747 28.2885 61.9037 28.8655C62.4803 29.4949 62.7685 30.2555 62.7685 31.1472C62.7685 32.0389 62.4803 32.7732 61.9037 33.3502L59.152 36.104H59.6237C67.4858 36.104 74.1686 38.8578 79.6721 44.3653C85.1756 49.8729 87.9273 56.5606 87.9273 64.4286C87.9273 70.9328 85.9356 76.7026 81.9521 81.7381C77.9686 86.7736 72.8583 90.1306 66.621 91.8091Z" fill="white"/>
</svg>
