<svg width="120" height="120" viewBox="0 0 120 120" fill="none" xmlns="http://www.w3.org/2000/svg">
<rect width="120" height="120" rx="24" fill="#05E4E8"/>
<path d="M49.4902 53.1124V41.7143C49.4902 37.5086 52.9036 34.0952 57.1093 34.0952C61.315 34.0952 64.7283 37.5086 64.7283 41.7143V53.1124C68.4159 50.6438 70.8236 46.4686 70.8236 41.7143C70.8236 34.1257 64.6978 28 57.1093 28C49.5207 28 43.395 34.1257 43.395 41.7143C43.395 46.4686 45.8026 50.6438 49.4902 53.1124ZM66.2521 60.64C65.3988 60.2133 64.4845 60 63.5397 60H61.6807V41.7143C61.6807 39.1848 59.6388 37.1429 57.1093 37.1429C54.5797 37.1429 52.5378 39.1848 52.5378 41.7143V74.4457L42.054 72.2514C40.9264 72.0076 39.7378 72.3733 38.915 73.1962C37.6045 74.5371 37.6045 76.6705 38.915 78.0114L51.1359 90.2324C52.294 91.36 53.8483 92 55.4636 92H74.054C77.1017 92 79.6617 89.7752 80.0883 86.7581L82.0083 73.1352C82.374 70.5448 81.0331 67.9848 78.6864 66.8267L66.2521 60.64Z" fill="white"/>
</svg>
