<svg width="1440" height="560" viewBox="0 0 1440 560" fill="none" xmlns="http://www.w3.org/2000/svg">
<mask id="mask0_1_739" style="mask-type:luminance" maskUnits="userSpaceOnUse" x="0" y="0" width="1440" height="560">
<path d="M1440 0H0V560H1440V0Z" fill="white"/>
</mask>
<g mask="url(#mask0_1_739)">
<path d="M1440 0H0V560H1440V0Z" fill="#E8FBF9"/>
<path d="M25 30C25 31.3261 25.5268 32.5979 26.4645 33.5355C27.4021 34.4732 28.6739 35 30 35C31.3261 35 32.5979 34.4732 33.5355 33.5355C34.4732 32.5979 35 31.3261 35 30C35 28.6739 34.4732 27.4021 33.5355 26.4645C32.5979 25.5268 31.3261 25 30 25C28.6739 25 27.4021 25.5268 26.4645 26.4645C25.5268 27.4021 25 28.6739 25 30V30Z" stroke="#05E8D5"/>
<path d="M60 60L0 120L60 60Z" stroke="#05E8D5" stroke-width="3"/>
<path d="M36 144L24 156L36 144Z" stroke="#05E8D5"/>
<path d="M27 210C27 210.796 27.3161 211.559 27.8787 212.121C28.4413 212.684 29.2044 213 30 213C30.7956 213 31.5587 212.684 32.1213 212.121C32.6839 211.559 33 210.796 33 210C33 209.204 32.6839 208.441 32.1213 207.879C31.5587 207.316 30.7956 207 30 207C29.2044 207 28.4413 207.316 27.8787 207.879C27.3161 208.441 27 209.204 27 210V210Z" stroke="#05E8D5"/>
<path d="M32 268L28 272L32 268Z" stroke="#05E8D5"/>
<path d="M25 330C25 331.326 25.5268 332.598 26.4645 333.536C27.4021 334.473 28.6739 335 30 335C31.3261 335 32.5979 334.473 33.5355 333.536C34.4732 332.598 35 331.326 35 330C35 328.674 34.4732 327.402 33.5355 326.464C32.5979 325.527 31.3261 325 30 325C28.6739 325 27.4021 325.527 26.4645 326.464C25.5268 327.402 25 328.674 25 330V330Z" stroke="#05E8D5"/>
<path d="M36 384L24 396L36 384Z" stroke="#05E8D5"/>
<path d="M32 448L28 452L32 448Z" stroke="#05E8D5"/>
<path d="M25 510C25 511.326 25.5268 512.598 26.4645 513.536C27.4021 514.473 28.6739 515 30 515C31.3261 515 32.5979 514.473 33.5355 513.536C34.4732 512.598 35 511.326 35 510C35 508.674 34.4732 507.402 33.5355 506.464C32.5979 505.527 31.3261 505 30 505C28.6739 505 27.4021 505.527 26.4645 506.464C25.5268 507.402 25 508.674 25 510V510Z" stroke="#05E8D5"/>
<path d="M85 30C85 31.3261 85.5268 32.5979 86.4645 33.5355C87.4021 34.4732 88.6739 35 90 35C91.3261 35 92.5979 34.4732 93.5355 33.5355C94.4732 32.5979 95 31.3261 95 30C95 28.6739 94.4732 27.4021 93.5355 26.4645C92.5979 25.5268 91.3261 25 90 25C88.6739 25 87.4021 25.5268 86.4645 26.4645C85.5268 27.4021 85 28.6739 85 30V30Z" stroke="#05E8D5"/>
<path d="M89 90C89 90.2652 89.1054 90.5196 89.2929 90.7071C89.4804 90.8946 89.7348 91 90 91C90.2652 91 90.5196 90.8946 90.7071 90.7071C90.8946 90.5196 91 90.2652 91 90C91 89.7348 90.8946 89.4804 90.7071 89.2929C90.5196 89.1054 90.2652 89 90 89C89.7348 89 89.4804 89.1054 89.2929 89.2929C89.1054 89.4804 89 89.7348 89 90V90Z" stroke="#05E8D5"/>
<path d="M87 150C87 150.796 87.3161 151.559 87.8787 152.121C88.4413 152.684 89.2044 153 90 153C90.7956 153 91.5587 152.684 92.1213 152.121C92.6839 151.559 93 150.796 93 150C93 149.204 92.6839 148.441 92.1213 147.879C91.5587 147.316 90.7956 147 90 147C89.2044 147 88.4413 147.316 87.8787 147.879C87.3161 148.441 87 149.204 87 150V150Z" stroke="#05E8D5"/>
<path d="M85 210C85 211.326 85.5268 212.598 86.4645 213.536C87.4021 214.473 88.6739 215 90 215C91.3261 215 92.5979 214.473 93.5355 213.536C94.4732 212.598 95 211.326 95 210C95 208.674 94.4732 207.402 93.5355 206.464C92.5979 205.527 91.3261 205 90 205C88.6739 205 87.4021 205.527 86.4645 206.464C85.5268 207.402 85 208.674 85 210V210Z" stroke="#05E8D5"/>
<path d="M92 268L88 272L92 268Z" stroke="#05E8D5"/>
<path d="M85 330C85 331.326 85.5268 332.598 86.4645 333.536C87.4021 334.473 88.6739 335 90 335C91.3261 335 92.5979 334.473 93.5355 333.536C94.4732 332.598 95 331.326 95 330C95 328.674 94.4732 327.402 93.5355 326.464C92.5979 325.527 91.3261 325 90 325C88.6739 325 87.4021 325.527 86.4645 326.464C85.5268 327.402 85 328.674 85 330V330Z" stroke="#05E8D5"/>
<path d="M87 390C87 390.796 87.3161 391.559 87.8787 392.121C88.4413 392.684 89.2044 393 90 393C90.7956 393 91.5587 392.684 92.1213 392.121C92.6839 391.559 93 390.796 93 390C93 389.204 92.6839 388.441 92.1213 387.879C91.5587 387.316 90.7956 387 90 387C89.2044 387 88.4413 387.316 87.8787 387.879C87.3161 388.441 87 389.204 87 390V390Z" stroke="#05E8D5"/>
<path d="M89 450C89 450.265 89.1054 450.52 89.2929 450.707C89.4804 450.895 89.7348 451 90 451C90.2652 451 90.5196 450.895 90.7071 450.707C90.8946 450.52 91 450.265 91 450C91 449.735 90.8946 449.48 90.7071 449.293C90.5196 449.105 90.2652 449 90 449C89.7348 449 89.4804 449.105 89.2929 449.293C89.1054 449.48 89 449.735 89 450V450Z" stroke="#05E8D5"/>
<path d="M85 510C85 511.326 85.5268 512.598 86.4645 513.536C87.4021 514.473 88.6739 515 90 515C91.3261 515 92.5979 514.473 93.5355 513.536C94.4732 512.598 95 511.326 95 510C95 508.674 94.4732 507.402 93.5355 506.464C92.5979 505.527 91.3261 505 90 505C88.6739 505 87.4021 505.527 86.4645 506.464C85.5268 507.402 85 508.674 85 510V510Z" stroke="#05E8D5"/>
<path d="M156 24L144 36L156 24Z" stroke="#05E8D5"/>
<path d="M152 88L148 92L152 88Z" stroke="#05E8D5"/>
<path d="M156 144L144 156L156 144Z" stroke="#05E8D5"/>
<path d="M180 180L120 240L180 180Z" stroke="#05E8D5" stroke-width="3"/>
<path d="M156 264L144 276L156 264Z" stroke="#05E8D5"/>
<path d="M145 330C145 331.326 145.527 332.598 146.464 333.536C147.402 334.473 148.674 335 150 335C151.326 335 152.598 334.473 153.536 333.536C154.473 332.598 155 331.326 155 330C155 328.674 154.473 327.402 153.536 326.464C152.598 325.527 151.326 325 150 325C148.674 325 147.402 325.527 146.464 326.464C145.527 327.402 145 328.674 145 330V330Z" stroke="#05E8D5"/>
<path d="M145 390C145 391.326 145.527 392.598 146.464 393.536C147.402 394.473 148.674 395 150 395C151.326 395 152.598 394.473 153.536 393.536C154.473 392.598 155 391.326 155 390C155 388.674 154.473 387.402 153.536 386.464C152.598 385.527 151.326 385 150 385C148.674 385 147.402 385.527 146.464 386.464C145.527 387.402 145 388.674 145 390V390Z" stroke="#05E8D5"/>
<path d="M145 450C145 451.326 145.527 452.598 146.464 453.536C147.402 454.473 148.674 455 150 455C151.326 455 152.598 454.473 153.536 453.536C154.473 452.598 155 451.326 155 450C155 448.674 154.473 447.402 153.536 446.464C152.598 445.527 151.326 445 150 445C148.674 445 147.402 445.527 146.464 446.464C145.527 447.402 145 448.674 145 450V450Z" stroke="#05E8D5"/>
<path d="M145 510C145 511.326 145.527 512.598 146.464 513.536C147.402 514.473 148.674 515 150 515C151.326 515 152.598 514.473 153.536 513.536C154.473 512.598 155 511.326 155 510C155 508.674 154.473 507.402 153.536 506.464C152.598 505.527 151.326 505 150 505C148.674 505 147.402 505.527 146.464 506.464C145.527 507.402 145 508.674 145 510V510Z" stroke="#05E8D5"/>
<path d="M212 28L208 32L212 28Z" stroke="#05E8D5"/>
<path d="M212 88L208 92L212 88Z" stroke="#05E8D5"/>
<path d="M216 144L204 156L216 144Z" stroke="#05E8D5"/>
<path d="M207 210C207 210.796 207.316 211.559 207.879 212.121C208.441 212.684 209.204 213 210 213C210.796 213 211.559 212.684 212.121 212.121C212.684 211.559 213 210.796 213 210C213 209.204 212.684 208.441 212.121 207.879C211.559 207.316 210.796 207 210 207C209.204 207 208.441 207.316 207.879 207.879C207.316 208.441 207 209.204 207 210V210Z" stroke="#05E8D5"/>
<path d="M212 268L208 272L212 268Z" stroke="#05E8D5"/>
<path d="M216 324L204 336L216 324Z" stroke="#05E8D5"/>
<path d="M216 384L204 396L216 384Z" stroke="#05E8D5"/>
<path d="M216 444L204 456L216 444Z" stroke="#05E8D5"/>
<path d="M205 510C205 511.326 205.527 512.598 206.464 513.536C207.402 514.473 208.674 515 210 515C211.326 515 212.598 514.473 213.536 513.536C214.473 512.598 215 511.326 215 510C215 508.674 214.473 507.402 213.536 506.464C212.598 505.527 211.326 505 210 505C208.674 505 207.402 505.527 206.464 506.464C205.527 507.402 205 508.674 205 510V510Z" stroke="#05E8D5"/>
<path d="M240 540L180 600L240 540Z" stroke="#05E8D5" stroke-width="3"/>
<path d="M276 24L264 36L276 24Z" stroke="#05E8D5"/>
<path d="M300 60L240 120L300 60Z" stroke="#05E8D5" stroke-width="3"/>
<path d="M272 148L268 152L272 148Z" stroke="#05E8D5"/>
<path d="M267 210C267 210.796 267.316 211.559 267.879 212.121C268.441 212.684 269.204 213 270 213C270.796 213 271.559 212.684 272.121 212.121C272.684 211.559 273 210.796 273 210C273 209.204 272.684 208.441 272.121 207.879C271.559 207.316 270.796 207 270 207C269.204 207 268.441 207.316 267.879 207.879C267.316 208.441 267 209.204 267 210V210Z" stroke="#05E8D5"/>
<path d="M269 270C269 270.265 269.105 270.52 269.293 270.707C269.48 270.895 269.735 271 270 271C270.265 271 270.52 270.895 270.707 270.707C270.895 270.52 271 270.265 271 270C271 269.735 270.895 269.48 270.707 269.293C270.52 269.105 270.265 269 270 269C269.735 269 269.48 269.105 269.293 269.293C269.105 269.48 269 269.735 269 270V270Z" stroke="#05E8D5"/>
<path d="M267 330C267 330.796 267.316 331.559 267.879 332.121C268.441 332.684 269.204 333 270 333C270.796 333 271.559 332.684 272.121 332.121C272.684 331.559 273 330.796 273 330C273 329.204 272.684 328.441 272.121 327.879C271.559 327.316 270.796 327 270 327C269.204 327 268.441 327.316 267.879 327.879C267.316 328.441 267 329.204 267 330V330Z" stroke="#05E8D5"/>
<path d="M276 384L264 396L276 384Z" stroke="#05E8D5"/>
<path d="M276 444L264 456L276 444Z" stroke="#05E8D5"/>
<path d="M276 504L264 516L276 504Z" stroke="#05E8D5"/>
<path d="M325 30C325 31.3261 325.527 32.5979 326.464 33.5355C327.402 34.4732 328.674 35 330 35C331.326 35 332.598 34.4732 333.536 33.5355C334.473 32.5979 335 31.3261 335 30C335 28.6739 334.473 27.4021 333.536 26.4645C332.598 25.5268 331.326 25 330 25C328.674 25 327.402 25.5268 326.464 26.4645C325.527 27.4021 325 28.6739 325 30V30Z" stroke="#05E8D5"/>
<path d="M327 90C327 90.7956 327.316 91.5587 327.879 92.1213C328.441 92.6839 329.204 93 330 93C330.796 93 331.559 92.6839 332.121 92.1213C332.684 91.5587 333 90.7956 333 90C333 89.2044 332.684 88.4413 332.121 87.8787C331.559 87.3161 330.796 87 330 87C329.204 87 328.441 87.3161 327.879 87.8787C327.316 88.4413 327 89.2044 327 90V90Z" stroke="#05E8D5"/>
<path d="M336 144L324 156L336 144Z" stroke="#05E8D5"/>
<path d="M332 208L328 212L332 208Z" stroke="#05E8D5"/>
<path d="M325 270C325 271.326 325.527 272.598 326.464 273.536C327.402 274.473 328.674 275 330 275C331.326 275 332.598 274.473 333.536 273.536C334.473 272.598 335 271.326 335 270C335 268.674 334.473 267.402 333.536 266.464C332.598 265.527 331.326 265 330 265C328.674 265 327.402 265.527 326.464 266.464C325.527 267.402 325 268.674 325 270V270Z" stroke="#05E8D5"/>
<path d="M325 330C325 331.326 325.527 332.598 326.464 333.536C327.402 334.473 328.674 335 330 335C331.326 335 332.598 334.473 333.536 333.536C334.473 332.598 335 331.326 335 330C335 328.674 334.473 327.402 333.536 326.464C332.598 325.527 331.326 325 330 325C328.674 325 327.402 325.527 326.464 326.464C325.527 327.402 325 328.674 325 330V330Z" stroke="#05E8D5"/>
<path d="M325 390C325 391.326 325.527 392.598 326.464 393.536C327.402 394.473 328.674 395 330 395C331.326 395 332.598 394.473 333.536 393.536C334.473 392.598 335 391.326 335 390C335 388.674 334.473 387.402 333.536 386.464C332.598 385.527 331.326 385 330 385C328.674 385 327.402 385.527 326.464 386.464C325.527 387.402 325 388.674 325 390V390Z" stroke="#05E8D5"/>
<path d="M332 448L328 452L332 448Z" stroke="#05E8D5"/>
<path d="M329 510C329 510.265 329.105 510.52 329.293 510.707C329.48 510.895 329.735 511 330 511C330.265 511 330.52 510.895 330.707 510.707C330.895 510.52 331 510.265 331 510C331 509.735 330.895 509.48 330.707 509.293C330.52 509.105 330.265 509 330 509C329.735 509 329.48 509.105 329.293 509.293C329.105 509.48 329 509.735 329 510V510Z" stroke="#05E8D5"/>
<path d="M396 24L384 36L396 24Z" stroke="#05E8D5"/>
<path d="M385 90C385 91.3261 385.527 92.5979 386.464 93.5355C387.402 94.4732 388.674 95 390 95C391.326 95 392.598 94.4732 393.536 93.5355C394.473 92.5979 395 91.3261 395 90C395 88.6739 394.473 87.4021 393.536 86.4645C392.598 85.5268 391.326 85 390 85C388.674 85 387.402 85.5268 386.464 86.4645C385.527 87.4021 385 88.6739 385 90V90Z" stroke="#05E8D5"/>
<path d="M385 150C385 151.326 385.527 152.598 386.464 153.536C387.402 154.473 388.674 155 390 155C391.326 155 392.598 154.473 393.536 153.536C394.473 152.598 395 151.326 395 150C395 148.674 394.473 147.402 393.536 146.464C392.598 145.527 391.326 145 390 145C388.674 145 387.402 145.527 386.464 146.464C385.527 147.402 385 148.674 385 150V150Z" stroke="#05E8D5"/>
<path d="M385 210C385 211.326 385.527 212.598 386.464 213.536C387.402 214.473 388.674 215 390 215C391.326 215 392.598 214.473 393.536 213.536C394.473 212.598 395 211.326 395 210C395 208.674 394.473 207.402 393.536 206.464C392.598 205.527 391.326 205 390 205C388.674 205 387.402 205.527 386.464 206.464C385.527 207.402 385 208.674 385 210V210Z" stroke="#05E8D5"/>
<path d="M385 270C385 271.326 385.527 272.598 386.464 273.536C387.402 274.473 388.674 275 390 275C391.326 275 392.598 274.473 393.536 273.536C394.473 272.598 395 271.326 395 270C395 268.674 394.473 267.402 393.536 266.464C392.598 265.527 391.326 265 390 265C388.674 265 387.402 265.527 386.464 266.464C385.527 267.402 385 268.674 385 270V270Z" stroke="#05E8D5"/>
<path d="M392 328L388 332L392 328Z" stroke="#05E8D5"/>
<path d="M392 388L388 392L392 388Z" stroke="#05E8D5"/>
<path d="M392 448L388 452L392 448Z" stroke="#05E8D5"/>
<path d="M392 508L388 512L392 508Z" stroke="#05E8D5"/>
<path d="M452 28L448 32L452 28Z" stroke="#05E8D5"/>
<path d="M445 90C445 91.3261 445.527 92.5979 446.464 93.5355C447.402 94.4732 448.674 95 450 95C451.326 95 452.598 94.4732 453.536 93.5355C454.473 92.5979 455 91.3261 455 90C455 88.6739 454.473 87.4021 453.536 86.4645C452.598 85.5268 451.326 85 450 85C448.674 85 447.402 85.5268 446.464 86.4645C445.527 87.4021 445 88.6739 445 90V90Z" stroke="#05E8D5"/>
<path d="M447 150C447 150.796 447.316 151.559 447.879 152.121C448.441 152.684 449.204 153 450 153C450.796 153 451.559 152.684 452.121 152.121C452.684 151.559 453 150.796 453 150C453 149.204 452.684 148.441 452.121 147.879C451.559 147.316 450.796 147 450 147C449.204 147 448.441 147.316 447.879 147.879C447.316 148.441 447 149.204 447 150V150Z" stroke="#05E8D5"/>
<path d="M456 204L444 216L456 204Z" stroke="#05E8D5"/>
<path d="M445 270C445 271.326 445.527 272.598 446.464 273.536C447.402 274.473 448.674 275 450 275C451.326 275 452.598 274.473 453.536 273.536C454.473 272.598 455 271.326 455 270C455 268.674 454.473 267.402 453.536 266.464C452.598 265.527 451.326 265 450 265C448.674 265 447.402 265.527 446.464 266.464C445.527 267.402 445 268.674 445 270V270Z" stroke="#05E8D5"/>
<path d="M456 324L444 336L456 324Z" stroke="#05E8D5"/>
<path d="M447 390C447 390.796 447.316 391.559 447.879 392.121C448.441 392.684 449.204 393 450 393C450.796 393 451.559 392.684 452.121 392.121C452.684 391.559 453 390.796 453 390C453 389.204 452.684 388.441 452.121 387.879C451.559 387.316 450.796 387 450 387C449.204 387 448.441 387.316 447.879 387.879C447.316 388.441 447 389.204 447 390V390Z" stroke="#05E8D5"/>
<path d="M456 444L444 456L456 444Z" stroke="#05E8D5"/>
<path d="M452 508L448 512L452 508Z" stroke="#05E8D5"/>
<path d="M480 540L420 600L480 540Z" stroke="#05E8D5" stroke-width="3"/>
<path d="M540 0L480 60L540 0Z" stroke="#05E8D5" stroke-width="3"/>
<path d="M505 90C505 91.3261 505.527 92.5979 506.464 93.5355C507.402 94.4732 508.674 95 510 95C511.326 95 512.598 94.4732 513.536 93.5355C514.473 92.5979 515 91.3261 515 90C515 88.6739 514.473 87.4021 513.536 86.4645C512.598 85.5268 511.326 85 510 85C508.674 85 507.402 85.5268 506.464 86.4645C505.527 87.4021 505 88.6739 505 90V90Z" stroke="#05E8D5"/>
<path d="M516 144L504 156L516 144Z" stroke="#05E8D5"/>
<path d="M512 208L508 212L512 208Z" stroke="#05E8D5"/>
<path d="M516 264L504 276L516 264Z" stroke="#05E8D5"/>
<path d="M516 324L504 336L516 324Z" stroke="#05E8D5"/>
<path d="M509 390C509 390.265 509.105 390.52 509.293 390.707C509.48 390.895 509.735 391 510 391C510.265 391 510.52 390.895 510.707 390.707C510.895 390.52 511 390.265 511 390C511 389.735 510.895 389.48 510.707 389.293C510.52 389.105 510.265 389 510 389C509.735 389 509.48 389.105 509.293 389.293C509.105 389.48 509 389.735 509 390V390Z" stroke="#05E8D5"/>
<path d="M505 450C505 451.326 505.527 452.598 506.464 453.536C507.402 454.473 508.674 455 510 455C511.326 455 512.598 454.473 513.536 453.536C514.473 452.598 515 451.326 515 450C515 448.674 514.473 447.402 513.536 446.464C512.598 445.527 511.326 445 510 445C508.674 445 507.402 445.527 506.464 446.464C505.527 447.402 505 448.674 505 450V450Z" stroke="#05E8D5"/>
<path d="M505 510C505 511.326 505.527 512.598 506.464 513.536C507.402 514.473 508.674 515 510 515C511.326 515 512.598 514.473 513.536 513.536C514.473 512.598 515 511.326 515 510C515 508.674 514.473 507.402 513.536 506.464C512.598 505.527 511.326 505 510 505C508.674 505 507.402 505.527 506.464 506.464C505.527 507.402 505 508.674 505 510V510Z" stroke="#05E8D5"/>
<path d="M576 24L564 36L576 24Z" stroke="#05E8D5"/>
<path d="M576 84L564 96L576 84Z" stroke="#05E8D5"/>
<path d="M572 148L568 152L572 148Z" stroke="#05E8D5"/>
<path d="M567 210C567 210.796 567.316 211.559 567.879 212.121C568.441 212.684 569.204 213 570 213C570.796 213 571.559 212.684 572.121 212.121C572.684 211.559 573 210.796 573 210C573 209.204 572.684 208.441 572.121 207.879C571.559 207.316 570.796 207 570 207C569.204 207 568.441 207.316 567.879 207.879C567.316 208.441 567 209.204 567 210V210Z" stroke="#05E8D5"/>
<path d="M569 270C569 270.265 569.105 270.52 569.293 270.707C569.48 270.895 569.735 271 570 271C570.265 271 570.52 270.895 570.707 270.707C570.895 270.52 571 270.265 571 270C571 269.735 570.895 269.48 570.707 269.293C570.52 269.105 570.265 269 570 269C569.735 269 569.48 269.105 569.293 269.293C569.105 269.48 569 269.735 569 270V270Z" stroke="#05E8D5"/>
<path d="M567 330C567 330.796 567.316 331.559 567.879 332.121C568.441 332.684 569.204 333 570 333C570.796 333 571.559 332.684 572.121 332.121C572.684 331.559 573 330.796 573 330C573 329.204 572.684 328.441 572.121 327.879C571.559 327.316 570.796 327 570 327C569.204 327 568.441 327.316 567.879 327.879C567.316 328.441 567 329.204 567 330V330Z" stroke="#05E8D5"/>
<path d="M600 360L540 420L600 360Z" stroke="#05E8D5" stroke-width="3"/>
<path d="M572 448L568 452L572 448Z" stroke="#05E8D5"/>
<path d="M600 480L540 540L600 480Z" stroke="#05E8D5" stroke-width="3"/>
<path d="M625 30C625 31.3261 625.527 32.5979 626.464 33.5355C627.402 34.4732 628.674 35 630 35C631.326 35 632.598 34.4732 633.536 33.5355C634.473 32.5979 635 31.3261 635 30C635 28.6739 634.473 27.4021 633.536 26.4645C632.598 25.5268 631.326 25 630 25C628.674 25 627.402 25.5268 626.464 26.4645C625.527 27.4021 625 28.6739 625 30V30Z" stroke="#05E8D5"/>
<path d="M625 90C625 91.3261 625.527 92.5979 626.464 93.5355C627.402 94.4732 628.674 95 630 95C631.326 95 632.598 94.4732 633.536 93.5355C634.473 92.5979 635 91.3261 635 90C635 88.6739 634.473 87.4021 633.536 86.4645C632.598 85.5268 631.326 85 630 85C628.674 85 627.402 85.5268 626.464 86.4645C625.527 87.4021 625 88.6739 625 90V90Z" stroke="#05E8D5"/>
<path d="M636 144L624 156L636 144Z" stroke="#05E8D5"/>
<path d="M632 208L628 212L632 208Z" stroke="#05E8D5"/>
<path d="M632 268L628 272L632 268Z" stroke="#05E8D5"/>
<path d="M636 324L624 336L636 324Z" stroke="#05E8D5"/>
<path d="M636 384L624 396L636 384Z" stroke="#05E8D5"/>
<path d="M625 450C625 451.326 625.527 452.598 626.464 453.536C627.402 454.473 628.674 455 630 455C631.326 455 632.598 454.473 633.536 453.536C634.473 452.598 635 451.326 635 450C635 448.674 634.473 447.402 633.536 446.464C632.598 445.527 631.326 445 630 445C628.674 445 627.402 445.527 626.464 446.464C625.527 447.402 625 448.674 625 450V450Z" stroke="#05E8D5"/>
<path d="M629 510C629 510.265 629.105 510.52 629.293 510.707C629.48 510.895 629.735 511 630 511C630.265 511 630.52 510.895 630.707 510.707C630.895 510.52 631 510.265 631 510C631 509.735 630.895 509.48 630.707 509.293C630.52 509.105 630.265 509 630 509C629.735 509 629.48 509.105 629.293 509.293C629.105 509.48 629 509.735 629 510V510Z" stroke="#05E8D5"/>
<path d="M692 28L688 32L692 28Z" stroke="#05E8D5"/>
<path d="M692 88L688 92L692 88Z" stroke="#05E8D5"/>
<path d="M685 150C685 151.326 685.527 152.598 686.464 153.536C687.402 154.473 688.674 155 690 155C691.326 155 692.598 154.473 693.536 153.536C694.473 152.598 695 151.326 695 150C695 148.674 694.473 147.402 693.536 146.464C692.598 145.527 691.326 145 690 145C688.674 145 687.402 145.527 686.464 146.464C685.527 147.402 685 148.674 685 150V150Z" stroke="#05E8D5"/>
<path d="M696 204L684 216L696 204Z" stroke="#05E8D5"/>
<path d="M696 264L684 276L696 264Z" stroke="#05E8D5"/>
<path d="M692 328L688 332L692 328Z" stroke="#05E8D5"/>
<path d="M685 390C685 391.326 685.527 392.598 686.464 393.536C687.402 394.473 688.674 395 690 395C691.326 395 692.598 394.473 693.536 393.536C694.473 392.598 695 391.326 695 390C695 388.674 694.473 387.402 693.536 386.464C692.598 385.527 691.326 385 690 385C688.674 385 687.402 385.527 686.464 386.464C685.527 387.402 685 388.674 685 390V390Z" stroke="#05E8D5"/>
<path d="M696 444L684 456L696 444Z" stroke="#05E8D5"/>
<path d="M696 504L684 516L696 504Z" stroke="#05E8D5"/>
<path d="M745 30C745 31.3261 745.527 32.5979 746.464 33.5355C747.402 34.4732 748.674 35 750 35C751.326 35 752.598 34.4732 753.536 33.5355C754.473 32.5979 755 31.3261 755 30C755 28.6739 754.473 27.4021 753.536 26.4645C752.598 25.5268 751.326 25 750 25C748.674 25 747.402 25.5268 746.464 26.4645C745.527 27.4021 745 28.6739 745 30V30Z" stroke="#05E8D5"/>
<path d="M780 60L720 120L780 60Z" stroke="#05E8D5" stroke-width="3"/>
<path d="M756 144L744 156L756 144Z" stroke="#05E8D5"/>
<path d="M747 210C747 210.796 747.316 211.559 747.879 212.121C748.441 212.684 749.204 213 750 213C750.796 213 751.559 212.684 752.121 212.121C752.684 211.559 753 210.796 753 210C753 209.204 752.684 208.441 752.121 207.879C751.559 207.316 750.796 207 750 207C749.204 207 748.441 207.316 747.879 207.879C747.316 208.441 747 209.204 747 210V210Z" stroke="#05E8D5"/>
<path d="M752 268L748 272L752 268Z" stroke="#05E8D5"/>
<path d="M745 330C745 331.326 745.527 332.598 746.464 333.536C747.402 334.473 748.674 335 750 335C751.326 335 752.598 334.473 753.536 333.536C754.473 332.598 755 331.326 755 330C755 328.674 754.473 327.402 753.536 326.464C752.598 325.527 751.326 325 750 325C748.674 325 747.402 325.527 746.464 326.464C745.527 327.402 745 328.674 745 330V330Z" stroke="#05E8D5"/>
<path d="M756 384L744 396L756 384Z" stroke="#05E8D5"/>
<path d="M752 448L748 452L752 448Z" stroke="#05E8D5"/>
<path d="M745 510C745 511.326 745.527 512.598 746.464 513.536C747.402 514.473 748.674 515 750 515C751.326 515 752.598 514.473 753.536 513.536C754.473 512.598 755 511.326 755 510C755 508.674 754.473 507.402 753.536 506.464C752.598 505.527 751.326 505 750 505C748.674 505 747.402 505.527 746.464 506.464C745.527 507.402 745 508.674 745 510V510Z" stroke="#05E8D5"/>
<path d="M805 30C805 31.3261 805.527 32.5979 806.464 33.5355C807.402 34.4732 808.674 35 810 35C811.326 35 812.598 34.4732 813.536 33.5355C814.473 32.5979 815 31.3261 815 30C815 28.6739 814.473 27.4021 813.536 26.4645C812.598 25.5268 811.326 25 810 25C808.674 25 807.402 25.5268 806.464 26.4645C805.527 27.4021 805 28.6739 805 30V30Z" stroke="#05E8D5"/>
<path d="M809 90C809 90.2652 809.105 90.5196 809.293 90.7071C809.48 90.8946 809.735 91 810 91C810.265 91 810.52 90.8946 810.707 90.7071C810.895 90.5196 811 90.2652 811 90C811 89.7348 810.895 89.4804 810.707 89.2929C810.52 89.1054 810.265 89 810 89C809.735 89 809.48 89.1054 809.293 89.2929C809.105 89.4804 809 89.7348 809 90V90Z" stroke="#05E8D5"/>
<path d="M807 150C807 150.796 807.316 151.559 807.879 152.121C808.441 152.684 809.204 153 810 153C810.796 153 811.559 152.684 812.121 152.121C812.684 151.559 813 150.796 813 150C813 149.204 812.684 148.441 812.121 147.879C811.559 147.316 810.796 147 810 147C809.204 147 808.441 147.316 807.879 147.879C807.316 148.441 807 149.204 807 150V150Z" stroke="#05E8D5"/>
<path d="M805 210C805 211.326 805.527 212.598 806.464 213.536C807.402 214.473 808.674 215 810 215C811.326 215 812.598 214.473 813.536 213.536C814.473 212.598 815 211.326 815 210C815 208.674 814.473 207.402 813.536 206.464C812.598 205.527 811.326 205 810 205C808.674 205 807.402 205.527 806.464 206.464C805.527 207.402 805 208.674 805 210V210Z" stroke="#05E8D5"/>
<path d="M812 268L808 272L812 268Z" stroke="#05E8D5"/>
<path d="M805 330C805 331.326 805.527 332.598 806.464 333.536C807.402 334.473 808.674 335 810 335C811.326 335 812.598 334.473 813.536 333.536C814.473 332.598 815 331.326 815 330C815 328.674 814.473 327.402 813.536 326.464C812.598 325.527 811.326 325 810 325C808.674 325 807.402 325.527 806.464 326.464C805.527 327.402 805 328.674 805 330V330Z" stroke="#05E8D5"/>
<path d="M807 390C807 390.796 807.316 391.559 807.879 392.121C808.441 392.684 809.204 393 810 393C810.796 393 811.559 392.684 812.121 392.121C812.684 391.559 813 390.796 813 390C813 389.204 812.684 388.441 812.121 387.879C811.559 387.316 810.796 387 810 387C809.204 387 808.441 387.316 807.879 387.879C807.316 388.441 807 389.204 807 390V390Z" stroke="#05E8D5"/>
<path d="M809 450C809 450.265 809.105 450.52 809.293 450.707C809.48 450.895 809.735 451 810 451C810.265 451 810.52 450.895 810.707 450.707C810.895 450.52 811 450.265 811 450C811 449.735 810.895 449.48 810.707 449.293C810.52 449.105 810.265 449 810 449C809.735 449 809.48 449.105 809.293 449.293C809.105 449.48 809 449.735 809 450V450Z" stroke="#05E8D5"/>
<path d="M805 510C805 511.326 805.527 512.598 806.464 513.536C807.402 514.473 808.674 515 810 515C811.326 515 812.598 514.473 813.536 513.536C814.473 512.598 815 511.326 815 510C815 508.674 814.473 507.402 813.536 506.464C812.598 505.527 811.326 505 810 505C808.674 505 807.402 505.527 806.464 506.464C805.527 507.402 805 508.674 805 510V510Z" stroke="#05E8D5"/>
<path d="M876 24L864 36L876 24Z" stroke="#05E8D5"/>
<path d="M872 88L868 92L872 88Z" stroke="#05E8D5"/>
<path d="M876 144L864 156L876 144Z" stroke="#05E8D5"/>
<path d="M900 180L840 240L900 180Z" stroke="#05E8D5" stroke-width="3"/>
<path d="M876 264L864 276L876 264Z" stroke="#05E8D5"/>
<path d="M865 330C865 331.326 865.527 332.598 866.464 333.536C867.402 334.473 868.674 335 870 335C871.326 335 872.598 334.473 873.536 333.536C874.473 332.598 875 331.326 875 330C875 328.674 874.473 327.402 873.536 326.464C872.598 325.527 871.326 325 870 325C868.674 325 867.402 325.527 866.464 326.464C865.527 327.402 865 328.674 865 330V330Z" stroke="#05E8D5"/>
<path d="M865 390C865 391.326 865.527 392.598 866.464 393.536C867.402 394.473 868.674 395 870 395C871.326 395 872.598 394.473 873.536 393.536C874.473 392.598 875 391.326 875 390C875 388.674 874.473 387.402 873.536 386.464C872.598 385.527 871.326 385 870 385C868.674 385 867.402 385.527 866.464 386.464C865.527 387.402 865 388.674 865 390V390Z" stroke="#05E8D5"/>
<path d="M865 450C865 451.326 865.527 452.598 866.464 453.536C867.402 454.473 868.674 455 870 455C871.326 455 872.598 454.473 873.536 453.536C874.473 452.598 875 451.326 875 450C875 448.674 874.473 447.402 873.536 446.464C872.598 445.527 871.326 445 870 445C868.674 445 867.402 445.527 866.464 446.464C865.527 447.402 865 448.674 865 450V450Z" stroke="#05E8D5"/>
<path d="M865 510C865 511.326 865.527 512.598 866.464 513.536C867.402 514.473 868.674 515 870 515C871.326 515 872.598 514.473 873.536 513.536C874.473 512.598 875 511.326 875 510C875 508.674 874.473 507.402 873.536 506.464C872.598 505.527 871.326 505 870 505C868.674 505 867.402 505.527 866.464 506.464C865.527 507.402 865 508.674 865 510V510Z" stroke="#05E8D5"/>
<path d="M932 28L928 32L932 28Z" stroke="#05E8D5"/>
<path d="M932 88L928 92L932 88Z" stroke="#05E8D5"/>
<path d="M936 144L924 156L936 144Z" stroke="#05E8D5"/>
<path d="M927 210C927 210.796 927.316 211.559 927.879 212.121C928.441 212.684 929.204 213 930 213C930.796 213 931.559 212.684 932.121 212.121C932.684 211.559 933 210.796 933 210C933 209.204 932.684 208.441 932.121 207.879C931.559 207.316 930.796 207 930 207C929.204 207 928.441 207.316 927.879 207.879C927.316 208.441 927 209.204 927 210V210Z" stroke="#05E8D5"/>
<path d="M932 268L928 272L932 268Z" stroke="#05E8D5"/>
<path d="M936 324L924 336L936 324Z" stroke="#05E8D5"/>
<path d="M936 384L924 396L936 384Z" stroke="#05E8D5"/>
<path d="M936 444L924 456L936 444Z" stroke="#05E8D5"/>
<path d="M925 510C925 511.326 925.527 512.598 926.464 513.536C927.402 514.473 928.674 515 930 515C931.326 515 932.598 514.473 933.536 513.536C934.473 512.598 935 511.326 935 510C935 508.674 934.473 507.402 933.536 506.464C932.598 505.527 931.326 505 930 505C928.674 505 927.402 505.527 926.464 506.464C925.527 507.402 925 508.674 925 510V510Z" stroke="#05E8D5"/>
<path d="M960 540L900 600L960 540Z" stroke="#05E8D5" stroke-width="3"/>
<path d="M996 24L984 36L996 24Z" stroke="#05E8D5"/>
<path d="M1020 60L960 120L1020 60Z" stroke="#05E8D5" stroke-width="3"/>
<path d="M992 148L988 152L992 148Z" stroke="#05E8D5"/>
<path d="M987 210C987 210.796 987.316 211.559 987.879 212.121C988.441 212.684 989.204 213 990 213C990.796 213 991.559 212.684 992.121 212.121C992.684 211.559 993 210.796 993 210C993 209.204 992.684 208.441 992.121 207.879C991.559 207.316 990.796 207 990 207C989.204 207 988.441 207.316 987.879 207.879C987.316 208.441 987 209.204 987 210V210Z" stroke="#05E8D5"/>
<path d="M989 270C989 270.265 989.105 270.52 989.293 270.707C989.48 270.895 989.735 271 990 271C990.265 271 990.52 270.895 990.707 270.707C990.895 270.52 991 270.265 991 270C991 269.735 990.895 269.48 990.707 269.293C990.52 269.105 990.265 269 990 269C989.735 269 989.48 269.105 989.293 269.293C989.105 269.48 989 269.735 989 270V270Z" stroke="#05E8D5"/>
<path d="M987 330C987 330.796 987.316 331.559 987.879 332.121C988.441 332.684 989.204 333 990 333C990.796 333 991.559 332.684 992.121 332.121C992.684 331.559 993 330.796 993 330C993 329.204 992.684 328.441 992.121 327.879C991.559 327.316 990.796 327 990 327C989.204 327 988.441 327.316 987.879 327.879C987.316 328.441 987 329.204 987 330V330Z" stroke="#05E8D5"/>
<path d="M996 384L984 396L996 384Z" stroke="#05E8D5"/>
<path d="M996 444L984 456L996 444Z" stroke="#05E8D5"/>
<path d="M996 504L984 516L996 504Z" stroke="#05E8D5"/>
<path d="M1045 30C1045 31.3261 1045.53 32.5979 1046.46 33.5355C1047.4 34.4732 1048.67 35 1050 35C1051.33 35 1052.6 34.4732 1053.54 33.5355C1054.47 32.5979 1055 31.3261 1055 30C1055 28.6739 1054.47 27.4021 1053.54 26.4645C1052.6 25.5268 1051.33 25 1050 25C1048.67 25 1047.4 25.5268 1046.46 26.4645C1045.53 27.4021 1045 28.6739 1045 30V30Z" stroke="#05E8D5"/>
<path d="M1047 90C1047 90.7956 1047.32 91.5587 1047.88 92.1213C1048.44 92.6839 1049.2 93 1050 93C1050.8 93 1051.56 92.6839 1052.12 92.1213C1052.68 91.5587 1053 90.7956 1053 90C1053 89.2044 1052.68 88.4413 1052.12 87.8787C1051.56 87.3161 1050.8 87 1050 87C1049.2 87 1048.44 87.3161 1047.88 87.8787C1047.32 88.4413 1047 89.2044 1047 90V90Z" stroke="#05E8D5"/>
<path d="M1056 144L1044 156L1056 144Z" stroke="#05E8D5"/>
<path d="M1052 208L1048 212L1052 208Z" stroke="#05E8D5"/>
<path d="M1045 270C1045 271.326 1045.53 272.598 1046.46 273.536C1047.4 274.473 1048.67 275 1050 275C1051.33 275 1052.6 274.473 1053.54 273.536C1054.47 272.598 1055 271.326 1055 270C1055 268.674 1054.47 267.402 1053.54 266.464C1052.6 265.527 1051.33 265 1050 265C1048.67 265 1047.4 265.527 1046.46 266.464C1045.53 267.402 1045 268.674 1045 270V270Z" stroke="#05E8D5"/>
<path d="M1045 330C1045 331.326 1045.53 332.598 1046.46 333.536C1047.4 334.473 1048.67 335 1050 335C1051.33 335 1052.6 334.473 1053.54 333.536C1054.47 332.598 1055 331.326 1055 330C1055 328.674 1054.47 327.402 1053.54 326.464C1052.6 325.527 1051.33 325 1050 325C1048.67 325 1047.4 325.527 1046.46 326.464C1045.53 327.402 1045 328.674 1045 330V330Z" stroke="#05E8D5"/>
<path d="M1045 390C1045 391.326 1045.53 392.598 1046.46 393.536C1047.4 394.473 1048.67 395 1050 395C1051.33 395 1052.6 394.473 1053.54 393.536C1054.47 392.598 1055 391.326 1055 390C1055 388.674 1054.47 387.402 1053.54 386.464C1052.6 385.527 1051.33 385 1050 385C1048.67 385 1047.4 385.527 1046.46 386.464C1045.53 387.402 1045 388.674 1045 390V390Z" stroke="#05E8D5"/>
<path d="M1052 448L1048 452L1052 448Z" stroke="#05E8D5"/>
<path d="M1049 510C1049 510.265 1049.11 510.52 1049.29 510.707C1049.48 510.895 1049.73 511 1050 511C1050.27 511 1050.52 510.895 1050.71 510.707C1050.89 510.52 1051 510.265 1051 510C1051 509.735 1050.89 509.48 1050.71 509.293C1050.52 509.105 1050.27 509 1050 509C1049.73 509 1049.48 509.105 1049.29 509.293C1049.11 509.48 1049 509.735 1049 510V510Z" stroke="#05E8D5"/>
<path d="M1116 24L1104 36L1116 24Z" stroke="#05E8D5"/>
<path d="M1105 90C1105 91.3261 1105.53 92.5979 1106.46 93.5355C1107.4 94.4732 1108.67 95 1110 95C1111.33 95 1112.6 94.4732 1113.54 93.5355C1114.47 92.5979 1115 91.3261 1115 90C1115 88.6739 1114.47 87.4021 1113.54 86.4645C1112.6 85.5268 1111.33 85 1110 85C1108.67 85 1107.4 85.5268 1106.46 86.4645C1105.53 87.4021 1105 88.6739 1105 90V90Z" stroke="#05E8D5"/>
<path d="M1105 150C1105 151.326 1105.53 152.598 1106.46 153.536C1107.4 154.473 1108.67 155 1110 155C1111.33 155 1112.6 154.473 1113.54 153.536C1114.47 152.598 1115 151.326 1115 150C1115 148.674 1114.47 147.402 1113.54 146.464C1112.6 145.527 1111.33 145 1110 145C1108.67 145 1107.4 145.527 1106.46 146.464C1105.53 147.402 1105 148.674 1105 150V150Z" stroke="#05E8D5"/>
<path d="M1105 210C1105 211.326 1105.53 212.598 1106.46 213.536C1107.4 214.473 1108.67 215 1110 215C1111.33 215 1112.6 214.473 1113.54 213.536C1114.47 212.598 1115 211.326 1115 210C1115 208.674 1114.47 207.402 1113.54 206.464C1112.6 205.527 1111.33 205 1110 205C1108.67 205 1107.4 205.527 1106.46 206.464C1105.53 207.402 1105 208.674 1105 210V210Z" stroke="#05E8D5"/>
<path d="M1105 270C1105 271.326 1105.53 272.598 1106.46 273.536C1107.4 274.473 1108.67 275 1110 275C1111.33 275 1112.6 274.473 1113.54 273.536C1114.47 272.598 1115 271.326 1115 270C1115 268.674 1114.47 267.402 1113.54 266.464C1112.6 265.527 1111.33 265 1110 265C1108.67 265 1107.4 265.527 1106.46 266.464C1105.53 267.402 1105 268.674 1105 270V270Z" stroke="#05E8D5"/>
<path d="M1112 328L1108 332L1112 328Z" stroke="#05E8D5"/>
<path d="M1112 388L1108 392L1112 388Z" stroke="#05E8D5"/>
<path d="M1112 448L1108 452L1112 448Z" stroke="#05E8D5"/>
<path d="M1112 508L1108 512L1112 508Z" stroke="#05E8D5"/>
<path d="M1172 28L1168 32L1172 28Z" stroke="#05E8D5"/>
<path d="M1165 90C1165 91.3261 1165.53 92.5979 1166.46 93.5355C1167.4 94.4732 1168.67 95 1170 95C1171.33 95 1172.6 94.4732 1173.54 93.5355C1174.47 92.5979 1175 91.3261 1175 90C1175 88.6739 1174.47 87.4021 1173.54 86.4645C1172.6 85.5268 1171.33 85 1170 85C1168.67 85 1167.4 85.5268 1166.46 86.4645C1165.53 87.4021 1165 88.6739 1165 90V90Z" stroke="#05E8D5"/>
<path d="M1167 150C1167 150.796 1167.32 151.559 1167.88 152.121C1168.44 152.684 1169.2 153 1170 153C1170.8 153 1171.56 152.684 1172.12 152.121C1172.68 151.559 1173 150.796 1173 150C1173 149.204 1172.68 148.441 1172.12 147.879C1171.56 147.316 1170.8 147 1170 147C1169.2 147 1168.44 147.316 1167.88 147.879C1167.32 148.441 1167 149.204 1167 150V150Z" stroke="#05E8D5"/>
<path d="M1176 204L1164 216L1176 204Z" stroke="#05E8D5"/>
<path d="M1165 270C1165 271.326 1165.53 272.598 1166.46 273.536C1167.4 274.473 1168.67 275 1170 275C1171.33 275 1172.6 274.473 1173.54 273.536C1174.47 272.598 1175 271.326 1175 270C1175 268.674 1174.47 267.402 1173.54 266.464C1172.6 265.527 1171.33 265 1170 265C1168.67 265 1167.4 265.527 1166.46 266.464C1165.53 267.402 1165 268.674 1165 270V270Z" stroke="#05E8D5"/>
<path d="M1176 324L1164 336L1176 324Z" stroke="#05E8D5"/>
<path d="M1167 390C1167 390.796 1167.32 391.559 1167.88 392.121C1168.44 392.684 1169.2 393 1170 393C1170.8 393 1171.56 392.684 1172.12 392.121C1172.68 391.559 1173 390.796 1173 390C1173 389.204 1172.68 388.441 1172.12 387.879C1171.56 387.316 1170.8 387 1170 387C1169.2 387 1168.44 387.316 1167.88 387.879C1167.32 388.441 1167 389.204 1167 390V390Z" stroke="#05E8D5"/>
<path d="M1176 444L1164 456L1176 444Z" stroke="#05E8D5"/>
<path d="M1172 508L1168 512L1172 508Z" stroke="#05E8D5"/>
<path d="M1200 540L1140 600L1200 540Z" stroke="#05E8D5" stroke-width="3"/>
<path d="M1260 0L1200 60L1260 0Z" stroke="#05E8D5" stroke-width="3"/>
<path d="M1225 90C1225 91.3261 1225.53 92.5979 1226.46 93.5355C1227.4 94.4732 1228.67 95 1230 95C1231.33 95 1232.6 94.4732 1233.54 93.5355C1234.47 92.5979 1235 91.3261 1235 90C1235 88.6739 1234.47 87.4021 1233.54 86.4645C1232.6 85.5268 1231.33 85 1230 85C1228.67 85 1227.4 85.5268 1226.46 86.4645C1225.53 87.4021 1225 88.6739 1225 90V90Z" stroke="#05E8D5"/>
<path d="M1236 144L1224 156L1236 144Z" stroke="#05E8D5"/>
<path d="M1232 208L1228 212L1232 208Z" stroke="#05E8D5"/>
<path d="M1236 264L1224 276L1236 264Z" stroke="#05E8D5"/>
<path d="M1236 324L1224 336L1236 324Z" stroke="#05E8D5"/>
<path d="M1229 390C1229 390.265 1229.11 390.52 1229.29 390.707C1229.48 390.895 1229.73 391 1230 391C1230.27 391 1230.52 390.895 1230.71 390.707C1230.89 390.52 1231 390.265 1231 390C1231 389.735 1230.89 389.48 1230.71 389.293C1230.52 389.105 1230.27 389 1230 389C1229.73 389 1229.48 389.105 1229.29 389.293C1229.11 389.48 1229 389.735 1229 390V390Z" stroke="#05E8D5"/>
<path d="M1225 450C1225 451.326 1225.53 452.598 1226.46 453.536C1227.4 454.473 1228.67 455 1230 455C1231.33 455 1232.6 454.473 1233.54 453.536C1234.47 452.598 1235 451.326 1235 450C1235 448.674 1234.47 447.402 1233.54 446.464C1232.6 445.527 1231.33 445 1230 445C1228.67 445 1227.4 445.527 1226.46 446.464C1225.53 447.402 1225 448.674 1225 450V450Z" stroke="#05E8D5"/>
<path d="M1225 510C1225 511.326 1225.53 512.598 1226.46 513.536C1227.4 514.473 1228.67 515 1230 515C1231.33 515 1232.6 514.473 1233.54 513.536C1234.47 512.598 1235 511.326 1235 510C1235 508.674 1234.47 507.402 1233.54 506.464C1232.6 505.527 1231.33 505 1230 505C1228.67 505 1227.4 505.527 1226.46 506.464C1225.53 507.402 1225 508.674 1225 510V510Z" stroke="#05E8D5"/>
<path d="M1296 24L1284 36L1296 24Z" stroke="#05E8D5"/>
<path d="M1296 84L1284 96L1296 84Z" stroke="#05E8D5"/>
<path d="M1292 148L1288 152L1292 148Z" stroke="#05E8D5"/>
<path d="M1287 210C1287 210.796 1287.32 211.559 1287.88 212.121C1288.44 212.684 1289.2 213 1290 213C1290.8 213 1291.56 212.684 1292.12 212.121C1292.68 211.559 1293 210.796 1293 210C1293 209.204 1292.68 208.441 1292.12 207.879C1291.56 207.316 1290.8 207 1290 207C1289.2 207 1288.44 207.316 1287.88 207.879C1287.32 208.441 1287 209.204 1287 210V210Z" stroke="#05E8D5"/>
<path d="M1289 270C1289 270.265 1289.11 270.52 1289.29 270.707C1289.48 270.895 1289.73 271 1290 271C1290.27 271 1290.52 270.895 1290.71 270.707C1290.89 270.52 1291 270.265 1291 270C1291 269.735 1290.89 269.48 1290.71 269.293C1290.52 269.105 1290.27 269 1290 269C1289.73 269 1289.48 269.105 1289.29 269.293C1289.11 269.48 1289 269.735 1289 270V270Z" stroke="#05E8D5"/>
<path d="M1287 330C1287 330.796 1287.32 331.559 1287.88 332.121C1288.44 332.684 1289.2 333 1290 333C1290.8 333 1291.56 332.684 1292.12 332.121C1292.68 331.559 1293 330.796 1293 330C1293 329.204 1292.68 328.441 1292.12 327.879C1291.56 327.316 1290.8 327 1290 327C1289.2 327 1288.44 327.316 1287.88 327.879C1287.32 328.441 1287 329.204 1287 330V330Z" stroke="#05E8D5"/>
<path d="M1320 360L1260 420L1320 360Z" stroke="#05E8D5" stroke-width="3"/>
<path d="M1292 448L1288 452L1292 448Z" stroke="#05E8D5"/>
<path d="M1320 480L1260 540L1320 480Z" stroke="#05E8D5" stroke-width="3"/>
<path d="M1345 30C1345 31.3261 1345.53 32.5979 1346.46 33.5355C1347.4 34.4732 1348.67 35 1350 35C1351.33 35 1352.6 34.4732 1353.54 33.5355C1354.47 32.5979 1355 31.3261 1355 30C1355 28.6739 1354.47 27.4021 1353.54 26.4645C1352.6 25.5268 1351.33 25 1350 25C1348.67 25 1347.4 25.5268 1346.46 26.4645C1345.53 27.4021 1345 28.6739 1345 30V30Z" stroke="#05E8D5"/>
<path d="M1345 90C1345 91.3261 1345.53 92.5979 1346.46 93.5355C1347.4 94.4732 1348.67 95 1350 95C1351.33 95 1352.6 94.4732 1353.54 93.5355C1354.47 92.5979 1355 91.3261 1355 90C1355 88.6739 1354.47 87.4021 1353.54 86.4645C1352.6 85.5268 1351.33 85 1350 85C1348.67 85 1347.4 85.5268 1346.46 86.4645C1345.53 87.4021 1345 88.6739 1345 90V90Z" stroke="#05E8D5"/>
<path d="M1356 144L1344 156L1356 144Z" stroke="#05E8D5"/>
<path d="M1352 208L1348 212L1352 208Z" stroke="#05E8D5"/>
<path d="M1352 268L1348 272L1352 268Z" stroke="#05E8D5"/>
<path d="M1356 324L1344 336L1356 324Z" stroke="#05E8D5"/>
<path d="M1356 384L1344 396L1356 384Z" stroke="#05E8D5"/>
<path d="M1345 450C1345 451.326 1345.53 452.598 1346.46 453.536C1347.4 454.473 1348.67 455 1350 455C1351.33 455 1352.6 454.473 1353.54 453.536C1354.47 452.598 1355 451.326 1355 450C1355 448.674 1354.47 447.402 1353.54 446.464C1352.6 445.527 1351.33 445 1350 445C1348.67 445 1347.4 445.527 1346.46 446.464C1345.53 447.402 1345 448.674 1345 450V450Z" stroke="#05E8D5"/>
<path d="M1349 510C1349 510.265 1349.11 510.52 1349.29 510.707C1349.48 510.895 1349.73 511 1350 511C1350.27 511 1350.52 510.895 1350.71 510.707C1350.89 510.52 1351 510.265 1351 510C1351 509.735 1350.89 509.48 1350.71 509.293C1350.52 509.105 1350.27 509 1350 509C1349.73 509 1349.48 509.105 1349.29 509.293C1349.11 509.48 1349 509.735 1349 510V510Z" stroke="#05E8D5"/>
<path d="M1412 28L1408 32L1412 28Z" stroke="#05E8D5"/>
<path d="M1412 88L1408 92L1412 88Z" stroke="#05E8D5"/>
<path d="M1405 150C1405 151.326 1405.53 152.598 1406.46 153.536C1407.4 154.473 1408.67 155 1410 155C1411.33 155 1412.6 154.473 1413.54 153.536C1414.47 152.598 1415 151.326 1415 150C1415 148.674 1414.47 147.402 1413.54 146.464C1412.6 145.527 1411.33 145 1410 145C1408.67 145 1407.4 145.527 1406.46 146.464C1405.53 147.402 1405 148.674 1405 150V150Z" stroke="#05E8D5"/>
<path d="M1416 204L1404 216L1416 204Z" stroke="#05E8D5"/>
<path d="M1416 264L1404 276L1416 264Z" stroke="#05E8D5"/>
<path d="M1412 328L1408 332L1412 328Z" stroke="#05E8D5"/>
<path d="M1405 390C1405 391.326 1405.53 392.598 1406.46 393.536C1407.4 394.473 1408.67 395 1410 395C1411.33 395 1412.6 394.473 1413.54 393.536C1414.47 392.598 1415 391.326 1415 390C1415 388.674 1414.47 387.402 1413.54 386.464C1412.6 385.527 1411.33 385 1410 385C1408.67 385 1407.4 385.527 1406.46 386.464C1405.53 387.402 1405 388.674 1405 390V390Z" stroke="#05E8D5"/>
<path d="M1416 444L1404 456L1416 444Z" stroke="#05E8D5"/>
<path d="M1416 504L1404 516L1416 504Z" stroke="#05E8D5"/>
</g>
</svg>
