<svg width="176" height="40" viewBox="0 0 176 40" fill="none" xmlns="http://www.w3.org/2000/svg">
<path d="M35.8033 0H12.1967C5.46066 0 0 5.93761 0 13.262V26.738C0 34.0624 5.46066 40 12.1967 40H35.8033C42.5393 40 48 34.0624 48 26.738V13.262C48 5.93761 42.5393 0 35.8033 0Z" fill="#0F2F2C"/>
<path d="M16.8421 13.3333C16.8421 11.4924 15.5225 10 13.8947 10C12.267 10 10.9474 11.4924 10.9474 13.3333V20C10.9474 21.8409 12.267 23.3333 13.8947 23.3333C15.5225 23.3333 16.8421 21.8409 16.8421 20V13.3333Z" fill="#05E8D5"/>
<path d="M38.7368 13.3333C38.7368 11.4924 37.4173 10 35.7895 10C34.1617 10 32.8421 11.4924 32.8421 13.3333V20C32.8421 21.8409 34.1617 23.3333 35.7895 23.3333C37.4173 23.3333 38.7368 21.8409 38.7368 20V13.3333Z" fill="#05E8D5"/>
<path d="M30.3833 29.1667C30.8537 29.1667 31.244 29.4812 31.1414 29.8556C31.0564 30.1655 30.9139 30.4694 30.7163 30.7611C30.3739 31.2667 29.872 31.726 29.2392 32.113C28.6065 32.4998 27.8553 32.8068 27.0287 33.0161C26.2018 33.2255 25.3158 33.3333 24.421 33.3333C23.5262 33.3333 22.6402 33.2255 21.8134 33.0161C20.9867 32.8068 20.2355 32.4998 19.6028 32.113C18.97 31.726 18.4681 31.2667 18.1257 30.7611C17.928 30.4694 17.7857 30.1655 17.7007 29.8556C17.5981 29.4812 17.9883 29.1667 18.4587 29.1667H20.1622C20.6326 29.1667 21.0019 29.4905 21.1965 29.8396C21.2199 29.8814 21.2455 29.9229 21.2734 29.9639C21.4446 30.2167 21.6956 30.4464 22.0118 30.6398C22.3282 30.8333 22.7039 30.9866 23.1172 31.0915C23.5305 31.1962 23.9736 31.25 24.421 31.25C24.8684 31.25 25.3115 31.1962 25.7248 31.0915C26.1382 30.9866 26.5138 30.8333 26.8302 30.6398C27.1464 30.4464 27.3975 30.2167 27.5687 29.9639C27.5966 29.9229 27.6221 29.8814 27.6455 29.8396C27.8402 29.4905 28.2094 29.1667 28.6798 29.1667H30.3833Z" fill="#05E8D5"/>
<path d="M61.04 29.24C60.592 29.24 60.056 29.216 59.432 29.168C58.808 29.136 58.12 29.064 57.368 28.952V11.528C58.136 11.416 58.824 11.344 59.432 11.312C60.056 11.264 60.592 11.24 61.04 11.24C63.008 11.24 64.472 11.6 65.432 12.32C66.392 13.024 66.872 14.104 66.872 15.56C66.872 16.568 66.648 17.424 66.2 18.128C65.752 18.816 65.104 19.28 64.256 19.52V19.616C65.28 19.856 66.048 20.352 66.56 21.104C67.088 21.856 67.352 22.848 67.352 24.08C67.352 25.824 66.832 27.12 65.792 27.968C64.752 28.816 63.168 29.24 61.04 29.24ZM59.504 26.576C59.792 26.688 60.08 26.776 60.368 26.84C60.656 26.888 60.984 26.912 61.352 26.912C62.472 26.912 63.296 26.664 63.824 26.168C64.352 25.656 64.616 24.88 64.616 23.84C64.616 22.8 64.344 22.04 63.8 21.56C63.272 21.08 62.424 20.84 61.256 20.84H58.712V18.632H60.968C62.072 18.632 62.88 18.424 63.392 18.008C63.92 17.592 64.184 16.944 64.184 16.064C64.184 15.216 63.952 14.592 63.488 14.192C63.024 13.776 62.312 13.568 61.352 13.568C61.032 13.568 60.712 13.592 60.392 13.64C60.088 13.688 59.792 13.776 59.504 13.904L60.032 13.016V27.464L59.504 26.576ZM70.64 17.6C71.456 17.328 72.336 17.096 73.28 16.904C74.24 16.712 75.184 16.56 76.112 16.448C77.04 16.336 77.896 16.28 78.68 16.28V18.56C77.672 18.56 76.616 18.656 75.512 18.848C74.408 19.04 73.448 19.288 72.632 19.592L73.28 18.344V29H70.64V17.6ZM86.336 29.24C84.64 29.24 83.32 28.872 82.376 28.136C81.448 27.4 80.984 26.376 80.984 25.064C80.984 23.736 81.48 22.728 82.472 22.04C83.464 21.336 84.912 20.984 86.816 20.984H89.168V23.096H86.864C84.688 23.096 83.6 23.744 83.6 25.04C83.6 25.68 83.832 26.176 84.296 26.528C84.76 26.88 85.408 27.056 86.24 27.056C86.688 27.056 87.112 27 87.512 26.888C87.912 26.776 88.264 26.608 88.568 26.384L87.872 27.824V20.912C87.872 20.224 87.816 19.712 87.704 19.376C87.608 19.024 87.4 18.792 87.08 18.68C86.76 18.552 86.288 18.488 85.664 18.488C85.232 18.488 84.816 18.512 84.416 18.56C84.016 18.592 83.592 18.656 83.144 18.752C82.712 18.848 82.224 18.984 81.68 19.16V16.928C82.24 16.72 82.888 16.56 83.624 16.448C84.36 16.336 85.128 16.28 85.928 16.28C87.096 16.28 88.008 16.416 88.664 16.688C89.336 16.96 89.808 17.432 90.08 18.104C90.352 18.76 90.488 19.672 90.488 20.84V28.472C89.96 28.712 89.32 28.896 88.568 29.024C87.816 29.168 87.072 29.24 86.336 29.24ZM97.928 29V18.776H93.848V16.52H100.568V29H97.928ZM98.888 14.672C98.28 14.672 97.792 14.504 97.424 14.168C97.056 13.832 96.872 13.368 96.872 12.776C96.872 12.184 97.056 11.72 97.424 11.384C97.792 11.048 98.28 10.88 98.888 10.88C99.496 10.88 99.976 11.048 100.328 11.384C100.696 11.72 100.88 12.184 100.88 12.776C100.88 13.368 100.696 13.832 100.328 14.168C99.976 14.504 99.496 14.672 98.888 14.672ZM105.296 17.048C105.936 16.776 106.616 16.584 107.336 16.472C108.056 16.344 108.864 16.28 109.76 16.28C111.04 16.28 112.032 16.416 112.736 16.688C113.456 16.96 113.96 17.432 114.248 18.104C114.552 18.76 114.704 19.672 114.704 20.84V29H112.088V20.984C112.088 20.344 112.016 19.856 111.872 19.52C111.744 19.168 111.512 18.92 111.176 18.776C110.856 18.632 110.392 18.56 109.784 18.56C109.48 18.56 109.192 18.584 108.92 18.632C108.664 18.68 108.384 18.76 108.08 18.872C107.792 18.968 107.44 19.128 107.024 19.352L107.912 17.72V29H105.296V17.048ZM121.04 29.24C120.592 29.24 120.056 29.216 119.432 29.168C118.808 29.136 118.12 29.064 117.368 28.952V11.528C118.136 11.416 118.824 11.344 119.432 11.312C120.056 11.264 120.592 11.24 121.04 11.24C123.008 11.24 124.472 11.6 125.432 12.32C126.392 13.024 126.872 14.104 126.872 15.56C126.872 16.568 126.648 17.424 126.2 18.128C125.752 18.816 125.104 19.28 124.256 19.52V19.616C125.28 19.856 126.048 20.352 126.56 21.104C127.088 21.856 127.352 22.848 127.352 24.08C127.352 25.824 126.832 27.12 125.792 27.968C124.752 28.816 123.168 29.24 121.04 29.24ZM119.504 26.576C119.792 26.688 120.08 26.776 120.368 26.84C120.656 26.888 120.984 26.912 121.352 26.912C122.472 26.912 123.296 26.664 123.824 26.168C124.352 25.656 124.616 24.88 124.616 23.84C124.616 22.8 124.344 22.04 123.8 21.56C123.272 21.08 122.424 20.84 121.256 20.84H118.712V18.632H120.968C122.072 18.632 122.88 18.424 123.392 18.008C123.92 17.592 124.184 16.944 124.184 16.064C124.184 15.216 123.952 14.592 123.488 14.192C123.024 13.776 122.312 13.568 121.352 13.568C121.032 13.568 120.712 13.592 120.392 13.64C120.088 13.688 119.792 13.776 119.504 13.904L120.032 13.016V27.464L119.504 26.576ZM136.352 29.24C134.944 29.24 133.936 28.944 133.328 28.352C132.736 27.76 132.44 26.776 132.44 25.4V13.736H128.84V11.48H135.08V24.776C135.08 25.608 135.208 26.176 135.464 26.48C135.736 26.784 136.24 26.936 136.976 26.936C137.392 26.936 137.776 26.896 138.128 26.816C138.496 26.736 138.84 26.632 139.16 26.504V28.808C138.712 28.952 138.256 29.056 137.792 29.12C137.328 29.2 136.848 29.24 136.352 29.24ZM146.336 29.24C144.64 29.24 143.32 28.872 142.376 28.136C141.448 27.4 140.984 26.376 140.984 25.064C140.984 23.736 141.48 22.728 142.472 22.04C143.464 21.336 144.912 20.984 146.816 20.984H149.168V23.096H146.864C144.688 23.096 143.6 23.744 143.6 25.04C143.6 25.68 143.832 26.176 144.296 26.528C144.76 26.88 145.408 27.056 146.24 27.056C146.688 27.056 147.112 27 147.512 26.888C147.912 26.776 148.264 26.608 148.568 26.384L147.872 27.824V20.912C147.872 20.224 147.816 19.712 147.704 19.376C147.608 19.024 147.4 18.792 147.08 18.68C146.76 18.552 146.288 18.488 145.664 18.488C145.232 18.488 144.816 18.512 144.416 18.56C144.016 18.592 143.592 18.656 143.144 18.752C142.712 18.848 142.224 18.984 141.68 19.16V16.928C142.24 16.72 142.888 16.56 143.624 16.448C144.36 16.336 145.128 16.28 145.928 16.28C147.096 16.28 148.008 16.416 148.664 16.688C149.336 16.96 149.808 17.432 150.08 18.104C150.352 18.76 150.488 19.672 150.488 20.84V28.472C149.96 28.712 149.32 28.896 148.568 29.024C147.816 29.168 147.072 29.24 146.336 29.24ZM157.592 29.24C156.872 29.24 156.2 29.184 155.576 29.072C154.952 28.976 154.328 28.824 153.704 28.616V26.312C154.376 26.52 155.016 26.68 155.624 26.792C156.248 26.904 156.864 26.96 157.472 26.96C158.352 26.96 158.984 26.848 159.368 26.624C159.768 26.384 159.968 26.024 159.968 25.544C159.968 25.288 159.88 25.064 159.704 24.872C159.544 24.68 159.28 24.496 158.912 24.32C158.56 24.128 158.088 23.944 157.496 23.768C156.024 23.352 154.968 22.832 154.328 22.208C153.688 21.584 153.368 20.76 153.368 19.736C153.368 18.536 153.768 17.664 154.568 17.12C155.384 16.56 156.664 16.28 158.408 16.28C159.016 16.28 159.616 16.32 160.208 16.4C160.8 16.48 161.504 16.616 162.32 16.808V20.672H159.728V17.312L160.856 18.776C160.312 18.696 159.872 18.64 159.536 18.608C159.216 18.576 158.904 18.56 158.6 18.56C157.72 18.56 157.072 18.664 156.656 18.872C156.24 19.08 156.032 19.408 156.032 19.856C156.032 20.112 156.12 20.352 156.296 20.576C156.472 20.8 156.752 21.008 157.136 21.2C157.52 21.392 158.04 21.592 158.696 21.8C160.136 22.248 161.152 22.768 161.744 23.36C162.336 23.936 162.632 24.712 162.632 25.688C162.632 26.904 162.216 27.8 161.384 28.376C160.568 28.952 159.304 29.24 157.592 29.24ZM171.584 29.24C170.128 29.24 169.08 28.952 168.44 28.376C167.8 27.784 167.48 26.792 167.48 25.4V18.776H164.576V16.52H167.48V12.44H170.12V16.52H174.56V18.776H170.12V24.776C170.12 25.608 170.264 26.176 170.552 26.48C170.84 26.784 171.384 26.936 172.184 26.936C172.616 26.936 173.032 26.896 173.432 26.816C173.832 26.736 174.208 26.632 174.56 26.504V28.808C174.08 28.968 173.592 29.08 173.096 29.144C172.616 29.208 172.112 29.24 171.584 29.24Z" fill="#0F2F2C"/>
</svg>
