<svg width="803" height="716" viewBox="0 0 803 716" fill="none" xmlns="http://www.w3.org/2000/svg">
<circle cx="312.583" cy="688" r="28" fill="#0F2F2C"/>
<circle cx="492.583" cy="688" r="28" fill="#0F2F2C"/>
<rect x="237.583" y="616" width="328" height="72" rx="36" fill="#EBEEF3"/>
<path d="M126.892 149.192C133.602 153.383 138.918 159.47 142.168 166.683C145.418 173.896 146.457 181.91 145.152 189.713C143.848 197.516 140.258 204.757 134.839 210.52C129.419 216.283 122.412 220.31 114.703 222.09C106.995 223.871 98.9319 223.326 91.5334 220.524C84.135 217.722 77.7335 212.79 73.1385 206.35C68.5435 199.91 65.9614 192.252 65.7187 184.344C65.476 176.437 67.5836 168.635 71.7749 161.925L85.3449 170.402C82.8301 174.428 81.5655 179.109 81.7111 183.853C81.8568 188.598 83.406 193.193 86.163 197.057C88.92 200.921 92.7609 203.88 97.2 205.561C101.639 207.242 106.477 207.569 111.102 206.501C115.727 205.433 119.931 203.017 123.183 199.559C126.435 196.101 128.588 191.757 129.371 187.075C130.154 182.393 129.531 177.584 127.581 173.257C125.631 168.929 122.441 165.277 118.415 162.762L126.892 149.192Z" fill="#EBEEF3"/>
<rect x="128.169" y="211.212" width="112" height="32" transform="rotate(76.992 128.169 211.212)" fill="#EBEEF3"/>
<rect x="153.722" y="318.12" width="112" height="32" transform="rotate(45 153.722 318.12)" fill="#EBEEF3"/>
<circle cx="112.579" cy="214.813" r="21" transform="rotate(76.992 112.579 214.813)" fill="#0F2F2C" stroke="#C2CED9" stroke-width="6"/>
<circle cx="142.408" cy="329.434" r="21" transform="rotate(45 142.408 329.434)" fill="#0F2F2C" stroke="#C2CED9" stroke-width="6"/>
<path d="M676.024 147.925C669.315 152.116 663.999 158.203 660.748 165.416C657.498 172.629 656.46 180.643 657.764 188.446C659.069 196.249 662.658 203.49 668.078 209.253C673.498 215.016 680.505 219.043 688.213 220.823C695.921 222.604 703.984 222.059 711.383 219.257C718.781 216.455 725.183 211.522 729.778 205.082C734.373 198.642 736.955 190.984 737.198 183.077C737.44 175.169 735.333 167.367 731.141 160.658L717.571 169.135C720.086 173.16 721.351 177.842 721.205 182.586C721.06 187.331 719.51 191.925 716.753 195.789C713.996 199.653 710.155 202.613 705.716 204.294C701.277 205.975 696.439 206.302 691.814 205.234C687.189 204.165 682.985 201.75 679.733 198.292C676.481 194.834 674.328 190.489 673.545 185.808C672.762 181.126 673.385 176.317 675.336 171.989C677.286 167.662 680.475 164.01 684.501 161.495L676.024 147.925Z" fill="#EBEEF3"/>
<rect width="112" height="32" transform="matrix(-0.225088 0.974339 0.974339 0.225088 674.747 209.945)" fill="#EBEEF3"/>
<rect width="112" height="32" transform="matrix(-0.707107 0.707107 0.707107 0.707107 649.195 316.853)" fill="#EBEEF3"/>
<circle cx="24" cy="24" r="21" transform="matrix(-0.225088 0.974339 0.974339 0.225088 672.355 184.76)" fill="#0F2F2C" stroke="#C2CED9" stroke-width="6"/>
<circle cx="24" cy="24" r="21" transform="matrix(-0.707107 0.707107 0.707107 0.707107 660.508 294.226)" fill="#0F2F2C" stroke="#C2CED9" stroke-width="6"/>
<rect x="312.583" y="584" width="180" height="32" fill="#0F2F2C"/>
<path d="M229.583 432C216.328 432 205.583 421.255 205.583 408L205.583 376C205.583 362.745 216.328 352 229.583 352L237.583 352L237.583 432L229.583 432Z" fill="#0F2F2C"/>
<path d="M565.583 432L565.583 352L573.583 352C586.838 352 597.583 362.745 597.583 376L597.583 408C597.583 421.255 586.838 432 573.583 432L565.583 432Z" fill="#0F2F2C"/>
<rect x="237.583" y="280" width="328" height="304" rx="72" fill="#EBEEF3"/>
<rect x="282.583" y="314" width="244" height="187" rx="62" fill="#0F2F2C" stroke="#C2CED9" stroke-width="4"/>
<circle cx="469.583" cy="544" r="16" fill="#C2CED9"/>
<circle cx="405.583" cy="544" r="16" fill="#C2CED9"/>
<circle cx="341.583" cy="544" r="16" fill="#C2CED9"/>
<rect x="365.583" y="248" width="80" height="32" fill="#0F2F2C"/>
<path d="M253.583 180C240.328 180 229.583 169.255 229.583 156L229.583 124C229.583 110.745 240.328 100 253.583 100L261.583 100L261.583 180L253.583 180Z" fill="#0F2F2C"/>
<path d="M541.583 180L541.583 100L549.583 100C562.838 100 573.583 110.745 573.583 124L573.583 156C573.583 169.255 562.838 180 549.583 180L541.583 180Z" fill="#0F2F2C"/>
<path d="M445.583 32L365.583 32L365.583 24C365.583 10.7452 376.328 6.05445e-06 389.583 4.89568e-06L421.583 2.09815e-06C434.838 9.39372e-07 445.583 10.7452 445.583 24L445.583 32Z" fill="#EBEEF3"/>
<rect x="261.583" y="32" width="280" height="216" rx="72" fill="#EBEEF3"/>
<rect x="279.583" y="46" width="244" height="187" rx="62" fill="#0F2F2C" stroke="#C2CED9" stroke-width="4"/>
<rect x="333.583" y="92" width="32" height="64" rx="16" fill="#05E8D5"/>
<rect x="445.583" y="92" width="32" height="64" rx="16" fill="#05E8D5"/>
<path d="M432.583 180C434.792 180 436.624 181.812 436.143 183.968C435.744 185.753 435.075 187.504 434.147 189.184C432.539 192.096 430.182 194.742 427.21 196.971C424.239 199.199 420.711 200.967 416.829 202.173C412.946 203.379 408.785 204 404.583 204C400.381 204 396.219 203.379 392.337 202.173C388.455 200.967 384.927 199.199 381.956 196.971C378.984 194.742 376.627 192.096 375.019 189.184C374.091 187.504 373.422 185.753 373.023 183.968C372.541 181.812 374.374 180 376.583 180L384.583 180C386.792 180 388.525 181.865 389.44 183.876C389.55 184.117 389.67 184.356 389.801 184.592C390.605 186.048 391.783 187.371 393.269 188.485C394.755 189.6 396.519 190.483 398.46 191.087C400.401 191.69 402.482 192 404.583 192C406.684 192 408.765 191.69 410.706 191.087C412.647 190.483 414.411 189.6 415.897 188.485C417.382 187.371 418.561 186.048 419.365 184.592C419.495 184.356 419.616 184.117 419.725 183.876C420.64 181.865 422.374 180 424.583 180H432.583Z" fill="#05E8D5"/>
</svg>
