<svg width="786" height="716" viewBox="0 0 786 716" fill="none" xmlns="http://www.w3.org/2000/svg">
<circle cx="255" cy="688" r="28" fill="#0F2F2C"/>
<circle cx="435" cy="688" r="28" fill="#0F2F2C"/>
<rect x="180" y="616" width="328" height="72" rx="36" fill="#EBEEF3"/>
<path d="M705.324 184C697.413 184 689.68 186.346 683.102 190.741C676.524 195.136 671.397 201.384 668.369 208.693C665.342 216.002 664.55 224.044 666.093 231.804C667.636 239.563 671.446 246.69 677.04 252.284C682.634 257.878 689.762 261.688 697.521 263.231C705.28 264.775 713.323 263.983 720.632 260.955C727.941 257.928 734.188 252.801 738.583 246.223C742.979 239.645 745.324 231.911 745.324 224H729.324C729.324 228.747 727.917 233.387 725.28 237.334C722.643 241.28 718.894 244.357 714.509 246.173C710.123 247.99 705.298 248.465 700.642 247.539C695.987 246.613 691.71 244.327 688.354 240.971C684.997 237.614 682.712 233.338 681.786 228.682C680.86 224.027 681.335 219.201 683.151 214.816C684.968 210.43 688.044 206.682 691.991 204.045C695.938 201.408 700.578 200 705.324 200V184Z" fill="#EBEEF3"/>
<rect width="112" height="32" transform="matrix(-0.707107 0.707107 0.707107 0.707107 671.383 235.924)" fill="#EBEEF3"/>
<rect width="112" height="32" transform="matrix(-0.707107 0.707107 0.707107 0.707107 592.188 315.12)" fill="#EBEEF3"/>
<circle cx="24" cy="24" r="21" transform="matrix(-0.707107 0.707107 0.707107 0.707107 682.697 213.296)" fill="#0F2F2C" stroke="#C2CED9" stroke-width="6"/>
<circle cx="24" cy="24" r="21" transform="matrix(-0.707107 0.707107 0.707107 0.707107 603.501 292.492)" fill="#0F2F2C" stroke="#C2CED9" stroke-width="6"/>
<path d="M79.1005 647.216C73.5064 641.622 69.6968 634.495 68.1534 626.735C66.61 618.976 67.4021 610.934 70.4296 603.624C73.4571 596.315 78.584 590.068 85.162 585.673C91.74 581.278 99.4736 578.932 107.385 578.932C115.296 578.932 123.03 581.278 129.608 585.673C136.186 590.068 141.312 596.315 144.34 603.624C147.368 610.934 148.16 618.976 146.616 626.735C145.073 634.495 141.263 641.622 135.669 647.216L124.355 635.902C127.712 632.546 129.998 628.27 130.924 623.614C131.85 618.958 131.374 614.133 129.558 609.747C127.741 605.362 124.665 601.614 120.719 598.977C116.772 596.339 112.132 594.932 107.385 594.932C102.638 594.932 97.9979 596.339 94.0511 598.977C90.1044 601.614 87.0282 605.362 85.2117 609.747C83.3952 614.133 82.9199 618.958 83.846 623.614C84.772 628.27 87.0578 632.546 90.4143 635.902L79.1005 647.216Z" fill="#EBEEF3"/>
<rect x="91.8163" y="586.5" width="112" height="32" transform="rotate(-90 91.8163 586.5)" fill="#EBEEF3"/>
<rect x="93.8234" y="466.995" width="112" height="32" transform="rotate(-60 93.8234 466.995)" fill="#EBEEF3"/>
<circle cx="107.816" cy="586.5" r="21" transform="rotate(-90 107.816 586.5)" fill="#0F2F2C" stroke="#C2CED9" stroke-width="6"/>
<circle cx="107.68" cy="474.995" r="21" transform="rotate(-60 107.68 474.995)" fill="#0F2F2C" stroke="#C2CED9" stroke-width="6"/>
<rect x="255" y="584" width="180" height="32" fill="#0F2F2C"/>
<path d="M172 432C158.745 432 148 421.255 148 408L148 376C148 362.745 158.745 352 172 352L180 352L180 432L172 432Z" fill="#0F2F2C"/>
<path d="M508 432L508 352L516 352C529.255 352 540 362.745 540 376L540 408C540 421.255 529.255 432 516 432L508 432Z" fill="#0F2F2C"/>
<rect x="180" y="280" width="328" height="304" rx="72" fill="#EBEEF3"/>
<rect x="225" y="314" width="244" height="187" rx="62" fill="#0F2F2C" stroke="#C2CED9" stroke-width="4"/>
<circle cx="412" cy="544" r="16" fill="#C2CED9"/>
<circle cx="348" cy="544" r="16" fill="#C2CED9"/>
<circle cx="284" cy="544" r="16" fill="#C2CED9"/>
<rect x="308" y="248" width="80" height="32" fill="#0F2F2C"/>
<path d="M196 180C182.745 180 172 169.255 172 156L172 124C172 110.745 182.745 100 196 100L204 100L204 180L196 180Z" fill="#0F2F2C"/>
<path d="M484 180L484 100L492 100C505.255 100 516 110.745 516 124L516 156C516 169.255 505.255 180 492 180L484 180Z" fill="#0F2F2C"/>
<path d="M388 32L308 32L308 24C308 10.7452 318.745 6.05445e-06 332 4.89568e-06L364 2.09815e-06C377.255 9.39372e-07 388 10.7452 388 24L388 32Z" fill="#EBEEF3"/>
<rect x="204" y="32" width="280" height="216" rx="72" fill="#EBEEF3"/>
<rect x="222" y="46" width="244" height="187" rx="62" fill="#0F2F2C" stroke="#C2CED9" stroke-width="4"/>
<rect x="276" y="92" width="32" height="64" rx="16" fill="#05E8D5"/>
<rect x="388" y="92" width="32" height="64" rx="16" fill="#05E8D5"/>
<path d="M375 180C377.209 180 379.042 181.812 378.56 183.968C378.161 185.753 377.492 187.504 376.564 189.184C374.956 192.096 372.599 194.742 369.627 196.971C366.656 199.199 363.128 200.967 359.246 202.173C355.363 203.379 351.202 204 347 204C342.798 204 338.637 203.379 334.754 202.173C330.872 200.967 327.344 199.199 324.373 196.971C321.401 194.742 319.044 192.096 317.436 189.184C316.508 187.504 315.839 185.753 315.44 183.968C314.958 181.812 316.791 180 319 180H327C329.209 180 330.943 181.865 331.857 183.876C331.967 184.117 332.087 184.356 332.218 184.592C333.022 186.048 334.201 187.371 335.686 188.485C337.172 189.6 338.936 190.483 340.877 191.087C342.818 191.69 344.899 192 347 192C349.101 192 351.182 191.69 353.123 191.087C355.064 190.483 356.828 189.6 358.314 188.485C359.799 187.371 360.978 186.048 361.782 184.592C361.913 184.356 362.033 184.117 362.142 183.876C363.057 181.865 364.791 180 367 180H375Z" fill="#05E8D5"/>
</svg>
